<svg xmlns="http://www.w3.org/2000/svg" xmlns:xlink="http://www.w3.org/1999/xlink" width="409.8" height="193.8" viewBox="0 0 409.8 193.8"><style>.st0{fill:#FDFDFD;} .st1{fill-rule:evenodd;clip-rule:evenodd;fill:#FDFDFD;} .st2{clip-path:url(#SVGID_2_);fill-rule:evenodd;clip-rule:evenodd;fill:#FDFDFD;} .st3{clip-path:url(#SVGID_4_);fill-rule:evenodd;clip-rule:evenodd;fill:#FDFDFD;} .st4{clip-path:url(#SVGID_6_);fill-rule:evenodd;clip-rule:evenodd;fill:#FDFDFD;} .st5{clip-path:url(#SVGID_8_);fill-rule:evenodd;clip-rule:evenodd;fill:#FDFDFD;}</style><path class="st0" d="M0 .1h4.2v193.2H0zM37 105.9c5.4 0 9.6 1.4 12.6 4.2 2.9 2.8 4.4 7 4.4 12.7 0 3-.3 5.6-1 7.9-.7 2.3-1.7 4.2-3.1 5.8-1.4 1.6-3.2 2.8-5.3 3.6-2.1.8-4.7 1.2-7.6 1.2H24.9V106H37zm.4 31.4c.5 0 1.2 0 2-.1s1.6-.3 2.5-.6c.9-.3 1.8-.8 2.6-1.4.9-.6 1.7-1.4 2.4-2.4s1.3-2.3 1.7-3.8c.4-1.5.7-3.4.7-5.6 0-2.1-.2-4-.6-5.7-.4-1.7-1.1-3.1-2-4.3-.9-1.2-2.2-2.1-3.6-2.7-1.5-.6-3.3-.9-5.5-.9h-7.9v27.4h7.7zM76.4 139.6c-1.9 1.5-4.3 2.2-7.2 2.2-2 0-3.8-.3-5.3-1s-2.8-1.6-3.8-2.8c-1-1.2-1.8-2.6-2.3-4.3-.5-1.6-.8-3.4-.9-5.4 0-1.9.3-3.7.9-5.3.6-1.6 1.4-3 2.5-4.2 1.1-1.2 2.3-2.1 3.8-2.8 1.5-.7 3.1-1 4.8-1 2.3 0 4.2.5 5.7 1.4 1.5.9 2.7 2.1 3.6 3.6.9 1.5 1.5 3 1.9 4.8.3 1.7.5 3.3.4 4.9H61.3c0 1.1.1 2.2.4 3.2.3 1 .8 1.9 1.4 2.7.7.8 1.5 1.4 2.5 1.9s2.2.7 3.6.7c1.8 0 3.2-.4 4.4-1.2 1.1-.8 1.9-2.1 2.3-3.8h4.2c-.6 2.8-1.8 5-3.7 6.4zm-1-16.4c-.4-.9-.9-1.7-1.5-2.3s-1.4-1.2-2.3-1.5c-.9-.4-1.8-.6-2.9-.6-1.1 0-2.1.2-2.9.6-.9.4-1.6.9-2.3 1.6-.6.7-1.1 1.4-1.5 2.3-.4.9-.6 1.8-.6 2.8H76c0-1.1-.3-2-.6-2.9zM88.3 115.6v3.5h.1c.7-1.4 1.8-2.5 3.3-3.1 1.5-.6 3.1-1 4.9-1 2 0 3.7.4 5.2 1.1 1.5.7 2.7 1.7 3.7 2.9s1.7 2.7 2.2 4.3.7 3.3.7 5.1c0 1.8-.2 3.5-.7 5.1-.5 1.6-1.2 3-2.2 4.2-1 1.2-2.2 2.2-3.7 2.8-1.5.7-3.2 1-5.1 1-.6 0-1.3-.1-2.1-.2s-1.5-.3-2.3-.6c-.8-.3-1.5-.7-2.2-1.2-.7-.5-1.2-1.1-1.7-1.9h-.1V151h-4.2v-35.3h4.2zm15.1 9.1c-.3-1.1-.8-2.2-1.4-3-.6-.9-1.5-1.6-2.5-2.1s-2.2-.8-3.5-.8c-1.4 0-2.6.3-3.6.8-1 .6-1.8 1.3-2.4 2.2-.6.9-1.1 1.9-1.4 3.1-.3 1.2-.4 2.3-.4 3.5 0 1.3.1 2.5.4 3.6.3 1.2.8 2.2 1.4 3.1.6.9 1.5 1.6 2.5 2.2 1 .5 2.3.8 3.7.8 1.5 0 2.7-.3 3.6-.8 1-.6 1.8-1.3 2.4-2.2.6-.9 1-2 1.3-3.2.3-1.2.4-2.4.4-3.7 0-1.2-.2-2.3-.5-3.5zM134.8 141.1c-.7.4-1.7.6-3 .6-1.1 0-2-.3-2.6-.9s-1-1.6-1-3c-1.2 1.4-2.5 2.4-4 3s-3.2.9-5 .9c-1.2 0-2.3-.1-3.3-.4s-1.9-.7-2.7-1.2c-.8-.6-1.4-1.3-1.8-2.2-.4-.9-.7-2-.7-3.3 0-1.5.2-2.6.7-3.6s1.1-1.7 2-2.3c.8-.6 1.7-1 2.8-1.3 1-.3 2.1-.5 3.2-.7 1.2-.2 2.3-.4 3.3-.5 1-.1 2-.3 2.7-.5.8-.2 1.4-.5 1.9-.9s.7-1 .7-1.8c0-.9-.2-1.7-.5-2.2-.3-.6-.8-1-1.3-1.3s-1.2-.5-1.8-.6c-.7-.1-1.3-.1-2-.1-1.8 0-3.3.3-4.5 1-1.2.7-1.8 2-1.9 3.8h-4.2c.1-1.6.4-2.9 1-4s1.4-2 2.4-2.6c1-.7 2.1-1.2 3.4-1.5 1.3-.3 2.6-.4 4.1-.4 1.2 0 2.3.1 3.4.2 1.1.2 2.2.5 3.1 1 .9.5 1.7 1.2 2.2 2.1.6.9.8 2.1.8 3.6v13.1c0 1 .1 1.7.2 2.2.1.5.5.7 1.2.7.4 0 .8-.1 1.3-.2v3.3zM128 128c-.5.4-1.2.7-2.1.9-.9.2-1.8.3-2.7.4-.9.1-1.9.2-2.8.4-1 .1-1.8.4-2.6.7-.8.3-1.4.8-1.9 1.4-.5.6-.7 1.4-.7 2.5 0 .7.1 1.3.4 1.7.3.5.6.9 1.1 1.2.4.3 1 .5 1.6.6.6.1 1.2.2 1.9.2 1.4 0 2.6-.2 3.6-.6 1-.4 1.8-.9 2.4-1.4.6-.6 1.1-1.2 1.4-1.9s.4-1.3.4-1.9V128zM141.7 115.6v5.4h.1c1-2.1 2.3-3.6 3.8-4.6 1.5-1 3.4-1.5 5.6-1.4v4.5c-1.7 0-3.1.2-4.3.7-1.2.5-2.1 1.1-2.9 2-.7.9-1.3 2-1.6 3.2-.3 1.3-.5 2.7-.5 4.4v11.4h-4.2v-25.6h4zM165.9 115.6v3.7h-5.1v15.9c0 .5 0 .9.1 1.2.1.3.2.5.5.7.2.2.6.3 1 .3s.9.1 1.6.1h1.9v3.7h-3.2c-1.1 0-2-.1-2.8-.2-.8-.1-1.4-.4-1.9-.8s-.8-1-1.1-1.7c-.2-.7-.3-1.7-.3-2.9v-16.3h-4.4v-3.7h4.4V108h4.2v7.7h5.1zM173.1 115.6v3.8h.1c1.9-2.9 4.7-4.4 8.3-4.4 1.6 0 3 .3 4.3 1 1.3.7 2.2 1.8 2.7 3.4.9-1.4 2-2.5 3.4-3.2 1.4-.8 2.9-1.1 4.6-1.1 1.3 0 2.5.1 3.5.4s1.9.7 2.7 1.3c.7.6 1.3 1.4 1.7 2.3s.6 2.1.6 3.4v18.8h-4.2v-16.8c0-.8-.1-1.5-.2-2.2-.1-.7-.4-1.3-.7-1.8-.4-.5-.9-.9-1.5-1.2-.6-.3-1.5-.4-2.5-.4-2.1 0-3.7.6-4.9 1.8-1.2 1.2-1.8 2.8-1.8 4.8v15.9H185v-16.8c0-.8-.1-1.6-.2-2.3s-.4-1.3-.8-1.8-.9-.9-1.5-1.2c-.6-.3-1.4-.4-2.4-.4-1.2 0-2.3.2-3.1.7-.9.5-1.6 1.1-2.1 1.8s-.9 1.4-1.2 2.2c-.2.7-.4 1.4-.4 1.9v15.9h-4.2v-25.6h4zM228.3 139.6c-1.9 1.5-4.3 2.2-7.2 2.2-2 0-3.8-.3-5.3-1s-2.8-1.6-3.8-2.8c-1-1.2-1.8-2.6-2.3-4.3-.5-1.6-.8-3.4-.9-5.4 0-1.9.3-3.7.9-5.3.6-1.6 1.4-3 2.5-4.2 1.1-1.2 2.3-2.1 3.8-2.8 1.5-.7 3.1-1 4.8-1 2.3 0 4.2.5 5.7 1.4 1.5.9 2.7 2.1 3.6 3.6.9 1.5 1.5 3 1.9 4.8.3 1.7.5 3.3.4 4.9h-19.2c0 1.1.1 2.2.4 3.2.3 1 .8 1.9 1.4 2.7.7.8 1.5 1.4 2.5 1.9s2.2.7 3.6.7c1.8 0 3.2-.4 4.4-1.2 1.1-.8 1.9-2.1 2.3-3.8h4.2c-.5 2.8-1.7 5-3.7 6.4zm-1-16.4c-.4-.9-.9-1.7-1.5-2.3s-1.4-1.2-2.3-1.5c-.9-.4-1.8-.6-2.9-.6-1.1 0-2.1.2-2.9.6-.9.4-1.6.9-2.3 1.6-.6.7-1.1 1.4-1.5 2.3-.4.9-.6 1.8-.6 2.8H228c-.1-1.1-.3-2-.7-2.9zM240 115.6v4.1h.1c1.7-3.1 4.5-4.7 8.3-4.7 1.7 0 3.1.2 4.2.7 1.1.5 2 1.1 2.7 1.9.7.8 1.2 1.8 1.5 2.9.3 1.1.4 2.4.4 3.8v16.8H253v-17.3c0-1.6-.5-2.8-1.4-3.8-.9-.9-2.2-1.4-3.8-1.4-1.3 0-2.4.2-3.3.6-.9.4-1.7 1-2.4 1.7-.6.7-1.1 1.6-1.4 2.5-.3 1-.5 2-.5 3.2v14.5H236v-25.6h4zM273 115.6v3.7h-5.1v15.9c0 .5 0 .9.1 1.2.1.3.2.5.5.7.2.2.6.3 1 .3s.9.1 1.6.1h1.9v3.7h-3.2c-1.1 0-2-.1-2.8-.2-.8-.1-1.4-.4-1.9-.8s-.8-1-1.1-1.7c-.2-.7-.3-1.7-.3-2.9v-16.3h-4.4v-3.7h4.4V108h4.2v7.7h5.1zM287.9 119.4v-3.7h4.3v-3.8c0-2.1.6-3.7 1.8-4.7 1.2-1.1 3-1.6 5.3-1.6.4 0 .8 0 1.4.1.5.1 1 .2 1.4.3v3.7l-1.2-.3c-.4 0-.8-.1-1.2-.1-1 0-1.8.2-2.4.6-.6.4-.8 1.2-.8 2.3v3.6h5v3.7h-5v21.9h-4.2v-21.9h-4.4zM302.8 123.2c.5-1.6 1.3-3.1 2.4-4.3 1.1-1.2 2.4-2.2 3.9-2.8 1.6-.7 3.3-1 5.3-1s3.8.3 5.4 1c1.5.7 2.8 1.6 3.9 2.8 1.1 1.2 1.8 2.6 2.4 4.3.5 1.6.8 3.4.8 5.3s-.3 3.6-.8 5.2-1.3 3-2.4 4.2c-1.1 1.2-2.4 2.1-3.9 2.8-1.5.7-3.3 1-5.4 1-2 0-3.8-.3-5.3-1-1.6-.7-2.9-1.6-3.9-2.8-1.1-1.2-1.8-2.6-2.4-4.2-.5-1.6-.8-3.4-.8-5.2.1-1.9.3-3.7.8-5.3zm4.3 9.4c.4 1.2 1 2.2 1.7 3 .7.8 1.6 1.4 2.5 1.9 1 .4 2 .6 3.1.6s2.1-.2 3.1-.6c1-.4 1.8-1 2.5-1.9.7-.8 1.3-1.8 1.7-3 .4-1.2.6-2.6.6-4.1 0-1.5-.2-2.9-.6-4.1-.4-1.2-1-2.2-1.7-3-.7-.8-1.6-1.5-2.5-1.9-1-.4-2-.6-3.1-.6s-2.1.2-3.1.6c-1 .4-1.8 1.1-2.5 1.9-.7.8-1.3 1.8-1.7 3-.4 1.2-.6 2.6-.6 4.1 0 1.5.2 2.9.6 4.1zM334.7 115.6v5.4h.1c1-2.1 2.3-3.6 3.8-4.6 1.5-1 3.4-1.5 5.6-1.4v4.5c-1.7 0-3.1.2-4.3.7-1.2.5-2.1 1.1-2.9 2-.7.9-1.3 2-1.6 3.2-.3 1.3-.5 2.7-.5 4.4v11.4h-4.2v-25.6h4zM29.8 157.9v35.3h-4.7v-35.3h4.7zM39.7 167.6v4.1h.1c1.7-3.1 4.5-4.7 8.3-4.7 1.7 0 3.1.2 4.2.7 1.1.5 2 1.1 2.7 1.9.7.8 1.2 1.8 1.5 2.9.3 1.1.4 2.4.4 3.8v16.8h-4.2v-17.3c0-1.6-.5-2.8-1.4-3.8-.9-.9-2.2-1.4-3.8-1.4-1.3 0-2.4.2-3.3.6-.9.4-1.7 1-2.4 1.7-.6.7-1.1 1.6-1.4 2.5-.3 1-.5 2-.5 3.2v14.5h-4.2v-25.6h4zM72.8 167.6v3.7h-5.1v15.9c0 .5 0 .9.1 1.2.1.3.2.5.5.7.2.2.6.3 1 .3s.9.1 1.6.1h1.9v3.7h-3.2c-1.1 0-2-.1-2.8-.2-.8-.1-1.4-.4-1.9-.8s-.8-1-1.1-1.7c-.2-.7-.3-1.7-.3-2.9v-16.3h-4.4v-3.7h4.4V160h4.2v7.7h5.1zM93.5 191.6c-1.9 1.5-4.3 2.2-7.2 2.2-2 0-3.8-.3-5.3-1s-2.8-1.6-3.8-2.8c-1-1.2-1.8-2.6-2.3-4.3-.5-1.6-.8-3.4-.9-5.4 0-1.9.3-3.7.9-5.3.6-1.6 1.4-3 2.5-4.2 1.1-1.2 2.3-2.1 3.8-2.8 1.5-.7 3.1-1 4.8-1 2.3 0 4.2.5 5.7 1.4 1.5.9 2.7 2.1 3.6 3.6.9 1.5 1.5 3 1.9 4.8.3 1.7.5 3.3.4 4.9H78.4c0 1.1.1 2.2.4 3.2.3 1 .8 1.9 1.4 2.7.7.8 1.5 1.4 2.5 1.9s2.2.7 3.6.7c1.8 0 3.2-.4 4.4-1.2 1.1-.8 1.9-2.1 2.3-3.8h4.2c-.6 2.8-1.8 5-3.7 6.4zm-1.1-16.4c-.4-.9-.9-1.7-1.5-2.3s-1.4-1.2-2.3-1.5c-.9-.4-1.8-.6-2.9-.6-1.1 0-2.1.2-2.9.6-.9.4-1.6.9-2.3 1.6-.6.7-1.1 1.4-1.5 2.3-.4.9-.6 1.8-.6 2.8h14.7c-.1-1.1-.3-2-.7-2.9zM105 167.6v5.4h.1c1-2.1 2.3-3.6 3.8-4.6 1.5-1 3.4-1.5 5.6-1.4v4.5c-1.7 0-3.1.2-4.3.7-1.2.5-2.1 1.1-2.9 2-.7.9-1.3 2-1.6 3.2-.3 1.3-.5 2.7-.5 4.4v11.4H101v-25.6h4zM120.8 167.6v4.1h.1c1.7-3.1 4.5-4.7 8.3-4.7 1.7 0 3.1.2 4.2.7 1.1.5 2 1.1 2.7 1.9.7.8 1.2 1.8 1.5 2.9.3 1.1.4 2.4.4 3.8v16.8h-4.2v-17.3c0-1.6-.5-2.8-1.4-3.8-.9-.9-2.2-1.4-3.8-1.4-1.3 0-2.4.2-3.3.6-.9.4-1.7 1-2.4 1.7-.6.7-1.1 1.6-1.4 2.5-.3 1-.5 2-.5 3.2v14.5h-4.2v-25.6h4zM165.8 193.1c-.7.4-1.7.6-3 .6-1.1 0-2-.3-2.6-.9s-1-1.6-1-3c-1.2 1.4-2.5 2.4-4 3s-3.2.9-5 .9c-1.2 0-2.3-.1-3.3-.4s-1.9-.7-2.7-1.2c-.8-.6-1.4-1.3-1.8-2.2-.4-.9-.7-2-.7-3.3 0-1.5.2-2.6.7-3.6s1.1-1.7 2-2.3c.8-.6 1.7-1 2.8-1.3 1-.3 2.1-.5 3.2-.7 1.2-.2 2.3-.4 3.3-.5 1-.1 2-.3 2.7-.5.8-.2 1.4-.5 1.9-.9s.7-1 .7-1.8c0-.9-.2-1.7-.5-2.2-.3-.6-.8-1-1.3-1.3s-1.2-.5-1.8-.6c-.7-.1-1.3-.1-2-.1-1.8 0-3.3.3-4.5 1-1.2.7-1.8 2-1.9 3.8h-4.2c.1-1.6.4-2.9 1-4s1.4-2 2.4-2.6c1-.7 2.1-1.2 3.4-1.5 1.3-.3 2.6-.4 4.1-.4 1.2 0 2.3.1 3.4.2 1.1.2 2.2.5 3.1 1 .9.5 1.7 1.2 2.2 2.1.6.9.8 2.1.8 3.6v13.1c0 1 .1 1.7.2 2.2.1.5.5.7 1.2.7.4 0 .8-.1 1.3-.2v3.3zM159 180c-.5.4-1.2.7-2.1.9-.9.2-1.8.3-2.7.4-.9.1-1.9.2-2.8.4-1 .1-1.8.4-2.6.7-.8.3-1.4.8-1.9 1.4-.5.6-.7 1.4-.7 2.5 0 .7.1 1.3.4 1.7.3.5.6.9 1.1 1.2.4.3 1 .5 1.6.6.6.1 1.2.2 1.9.2 1.4 0 2.6-.2 3.6-.6 1-.4 1.8-.9 2.4-1.4.6-.6 1.1-1.2 1.4-1.9s.4-1.3.4-1.9V180zM179.4 167.6v3.7h-5.1v15.9c0 .5 0 .9.1 1.2.1.3.2.5.5.7.2.2.6.3 1 .3s.9.1 1.6.1h1.9v3.7h-3.2c-1.1 0-2-.1-2.8-.2-.8-.1-1.4-.4-1.9-.8s-.8-1-1.1-1.7c-.2-.7-.3-1.7-.3-2.9v-16.3h-4.4v-3.7h4.4V160h4.2v7.7h5.1zM182.8 163v-5.1h4.2v5.1h-4.2zm4.2 4.6v25.6h-4.2v-25.6h4.2zM191.9 175.2c.5-1.6 1.3-3.1 2.4-4.3 1.1-1.2 2.4-2.2 3.9-2.8 1.6-.7 3.3-1 5.3-1s3.8.3 5.4 1c1.5.7 2.8 1.6 3.9 2.8 1.1 1.2 1.8 2.6 2.4 4.3.5 1.6.8 3.4.8 5.3s-.3 3.6-.8 5.2-1.3 3-2.4 4.2c-1.1 1.2-2.4 2.1-3.9 2.8-1.5.7-3.3 1-5.4 1-2 0-3.8-.3-5.3-1-1.6-.7-2.9-1.6-3.9-2.8-1.1-1.2-1.8-2.6-2.4-4.2-.5-1.6-.8-3.4-.8-5.2 0-1.9.2-3.7.8-5.3zm4.2 9.4c.4 1.2 1 2.2 1.7 3 .7.8 1.6 1.4 2.5 1.9 1 .4 2 .6 3.1.6s2.1-.2 3.1-.6c1-.4 1.8-1 2.5-1.9.7-.8 1.3-1.8 1.7-3 .4-1.2.6-2.6.6-4.1 0-1.5-.2-2.9-.6-4.1-.4-1.2-1-2.2-1.7-3-.7-.8-1.6-1.5-2.5-1.9-1-.4-2-.6-3.1-.6s-2.1.2-3.1.6c-1 .4-1.8 1.1-2.5 1.9-.7.8-1.3 1.8-1.7 3-.4 1.2-.6 2.6-.6 4.1 0 1.5.2 2.9.6 4.1zM223.8 167.6v4.1h.1c1.7-3.1 4.5-4.7 8.3-4.7 1.7 0 3.1.2 4.2.7 1.1.5 2 1.1 2.7 1.9.7.8 1.2 1.8 1.5 2.9.3 1.1.4 2.4.4 3.8v16.8h-4.2v-17.3c0-1.6-.5-2.8-1.4-3.8-.9-.9-2.2-1.4-3.8-1.4-1.3 0-2.4.2-3.3.6-.9.4-1.7 1-2.4 1.7-.6.7-1.1 1.6-1.4 2.5-.3 1-.5 2-.5 3.2v14.5h-4.2v-25.6h4zM268.8 193.1c-.7.4-1.7.6-3 .6-1.1 0-2-.3-2.6-.9s-1-1.6-1-3c-1.2 1.4-2.5 2.4-4 3s-3.2.9-5 .9c-1.2 0-2.3-.1-3.3-.4s-1.9-.7-2.7-1.2c-.8-.6-1.4-1.3-1.8-2.2-.4-.9-.7-2-.7-3.3 0-1.5.2-2.6.7-3.6s1.1-1.7 2-2.3c.8-.6 1.7-1 2.8-1.3 1-.3 2.1-.5 3.2-.7 1.2-.2 2.3-.4 3.3-.5 1-.1 2-.3 2.7-.5.8-.2 1.4-.5 1.9-.9s.7-1 .7-1.8c0-.9-.2-1.7-.5-2.2-.3-.6-.8-1-1.3-1.3s-1.2-.5-1.8-.6c-.7-.1-1.3-.1-2-.1-1.8 0-3.3.3-4.5 1-1.2.7-1.8 2-1.9 3.8h-4.2c.1-1.6.4-2.9 1-4s1.4-2 2.4-2.6c1-.7 2.1-1.2 3.4-1.5 1.3-.3 2.6-.4 4.1-.4 1.2 0 2.3.1 3.4.2 1.1.2 2.2.5 3.1 1 .9.5 1.7 1.2 2.2 2.1.6.9.8 2.1.8 3.6v13.1c0 1 .1 1.7.2 2.2.1.5.5.7 1.2.7.4 0 .8-.1 1.3-.2v3.3zM262 180c-.5.4-1.2.7-2.1.9-.9.2-1.8.3-2.7.4-.9.1-1.9.2-2.8.4-1 .1-1.8.4-2.6.7-.8.3-1.4.8-1.9 1.4-.5.6-.7 1.4-.7 2.5 0 .7.1 1.3.4 1.7.3.5.6.9 1.1 1.2.4.3 1 .5 1.6.6.6.1 1.2.2 1.9.2 1.4 0 2.6-.2 3.6-.6 1-.4 1.8-.9 2.4-1.4.6-.6 1.1-1.2 1.4-1.9s.4-1.3.4-1.9V180zM276.2 157.9v35.3H272v-35.3h4.2zM292.5 161.9v-4h28.3v4H309v31.4h-4.7v-31.4h-11.8z"/><path class="st0" d="M322.3 167.6v5.4h.1c1-2.1 2.3-3.6 3.8-4.6 1.5-1 3.4-1.5 5.6-1.4v4.5c-1.7 0-3.1.2-4.3.7-1.2.5-2.1 1.1-2.9 2-.7.9-1.3 2-1.6 3.2-.3 1.3-.5 2.7-.5 4.4v11.4h-4.2v-25.6h4zM356.7 193.1c-.7.4-1.7.6-3 .6-1.1 0-2-.3-2.6-.9s-1-1.6-1-3c-1.2 1.4-2.5 2.4-4 3s-3.2.9-5 .9c-1.2 0-2.3-.1-3.3-.4s-1.9-.7-2.7-1.2c-.8-.6-1.4-1.3-1.8-2.2-.4-.9-.7-2-.7-3.3 0-1.5.2-2.6.7-3.6s1.1-1.7 2-2.3c.8-.6 1.7-1 2.8-1.3 1-.3 2.1-.5 3.2-.7 1.2-.2 2.3-.4 3.3-.5 1-.1 2-.3 2.7-.5.8-.2 1.4-.5 1.9-.9s.7-1 .7-1.8c0-.9-.2-1.7-.5-2.2-.3-.6-.8-1-1.3-1.3s-1.2-.5-1.8-.6c-.7-.1-1.3-.1-2-.1-1.8 0-3.3.3-4.5 1-1.2.7-1.8 2-1.9 3.8h-4.2c.1-1.6.4-2.9 1-4s1.4-2 2.4-2.6c1-.7 2.1-1.2 3.4-1.5 1.3-.3 2.6-.4 4.1-.4 1.2 0 2.3.1 3.4.2 1.1.2 2.2.5 3.1 1 .9.5 1.7 1.2 2.2 2.1.6.9.8 2.1.8 3.6v13.1c0 1 .1 1.7.2 2.2.1.5.5.7 1.2.7.4 0 .8-.1 1.3-.2v3.3zm-6.8-13.1c-.5.4-1.2.7-2.1.9-.9.2-1.8.3-2.7.4-.9.1-1.9.2-2.8.4-1 .1-1.8.4-2.6.7-.8.3-1.4.8-1.9 1.4-.5.6-.7 1.4-.7 2.5 0 .7.1 1.3.4 1.7.3.5.6.9 1.1 1.2.4.3 1 .5 1.6.6.6.1 1.2.2 1.9.2 1.4 0 2.6-.2 3.6-.6 1-.4 1.8-.9 2.4-1.4.6-.6 1.1-1.2 1.4-1.9s.4-1.3.4-1.9V180zM378.1 193.2v-3.5h-.1c-.7 1.4-1.8 2.4-3.3 3.1-1.5.6-3.1.9-4.9.9-2 0-3.7-.4-5.2-1.1-1.5-.7-2.7-1.7-3.7-2.9s-1.7-2.6-2.2-4.3-.7-3.3-.7-5.1c0-1.8.2-3.5.7-5.1.5-1.6 1.2-3 2.2-4.2 1-1.2 2.2-2.2 3.7-2.9 1.5-.7 3.2-1.1 5.1-1.1.7 0 1.4.1 2.1.2.8.1 1.5.4 2.3.7.8.3 1.5.7 2.2 1.2.7.5 1.2 1.1 1.7 1.9h.1v-13.2h4.2v35.3h-4.2zm-15.1-9c.3 1.1.8 2.2 1.4 3s1.5 1.6 2.5 2.1 2.2.8 3.5.8c1.4 0 2.6-.3 3.6-.8 1-.6 1.8-1.3 2.4-2.2.6-.9 1.1-1.9 1.4-3.1.3-1.2.4-2.3.4-3.5 0-1.3-.1-2.5-.4-3.6-.3-1.2-.8-2.2-1.4-3.1s-1.5-1.6-2.5-2.2c-1-.5-2.3-.8-3.7-.8-1.4 0-2.6.3-3.6.8-1 .6-1.8 1.3-2.4 2.2-.6.9-1 2-1.3 3.2-.3 1.2-.4 2.4-.4 3.7 0 1.2.1 2.3.5 3.5zM405.7 191.6c-1.9 1.5-4.3 2.2-7.2 2.2-2 0-3.8-.3-5.3-1s-2.8-1.6-3.8-2.8c-1-1.2-1.8-2.6-2.3-4.3-.5-1.6-.8-3.4-.9-5.4 0-1.9.3-3.7.9-5.3.6-1.6 1.4-3 2.5-4.2 1.1-1.2 2.3-2.1 3.8-2.8 1.5-.7 3.1-1 4.8-1 2.3 0 4.2.5 5.7 1.4 1.5.9 2.7 2.1 3.6 3.6.9 1.5 1.5 3 1.9 4.8.3 1.7.5 3.3.4 4.9h-19.2c0 1.1.1 2.2.4 3.2.3 1 .8 1.9 1.4 2.7.7.8 1.5 1.4 2.5 1.9s2.2.7 3.6.7c1.8 0 3.2-.4 4.4-1.2 1.1-.8 1.9-2.1 2.3-3.8h4.2c-.5 2.8-1.8 5-3.7 6.4zm-1-16.4c-.4-.9-.9-1.7-1.5-2.3s-1.4-1.2-2.3-1.5c-.9-.4-1.8-.6-2.9-.6-1.1 0-2.1.2-2.9.6-.9.4-1.6.9-2.3 1.6-.6.7-1.1 1.4-1.5 2.3-.4.9-.6 1.8-.6 2.8h14.7c-.1-1.1-.3-2-.7-2.9z"/><g><path class="st0" d="M69.3 31.9c-.2-.1.1-.5.3-.5.1-.1.7-.1.7-.1s-.2.2-.2.5c-.1.2-.6.2-.8.1M70.9 32.8c-.2-.1.1-.5.3-.5.1-.1.7-.1.7-.1s-.2.2-.2.5c-.1.2-.7.2-.8.1M71 31.7c-.2-.1.1-.5.3-.5.1-.1.7-.1.7-.1s-.2.2-.2.5c-.1.2-.7.2-.8.1M69.3 33c-.2-.1.1-.5.3-.5.1-.1.7-.1.7-.1s-.2.2-.2.5c0 .2-.6.2-.8.1M70.9 33.9c-.2-.1.1-.4.2-.5.1-.1.6-.1.6-.1l-.2.4c0 .3-.4.3-.6.2M69.4 34.2c-.2-.1.1-.4.2-.5.1-.1.6-.1.6-.1s-.2.3-.2.5-.5.2-.6.1M72.2 33.8c-.2-.1.1-.4.2-.5.1-.1.6-.1.6-.1l-.2.4c.1.3-.4.3-.6.2M71 35c-.2-.1.1-.4.2-.5.1-.1.6-.1.6-.1l-.2.4c0 .3-.5.2-.6.2M72.3 34.9c-.2-.1.1-.4.2-.5.1-.1.6-.1.6-.1s-.1.3-.1.5c-.1.2-.5.2-.7.1M72.4 32.8c-.2-.1.1-.4.2-.5.1-.1.6-.1.6-.1s-.2.3-.2.5-.5.2-.6.1"/><path class="st1" d="M36.8 39.6c-.5-.5-.6-1.1-.4-1.6.2-.8.2-1.5-.2-1.9-.2-.2-.3-.3-.5-.4.2 1.1.3 2-.4 2.9.1-.3-.3-1-.3-1.8 0-.7.3-1.4.1-1.7.3.2 1 .3 1.3.4.7.1.8.4 1.1.9.1.2.4.4.5.5.1-.3.3-.5.3-.7.1-.3 0-.5 0-.8.4 0 .5.7.7.9.1.1.2.3.5.3.1-.3.1-.5.1-.8 0-.4.2-.7.1-1.1.2 0 .4.3.5.6.1.3.1.6.3.8.2-.2.4-.4.4-.6.2-.5.3-1 .3-1.6.3.2.4.2.7.5.3.3.5.8.8 1 .8.5 1.6.9 2.4 1.3 1 .5 2 .8 3.5 1.1.7.1 1.1.1 1.7 0 .3-.1.9-.1 1-.1.1 0 .5.1.8.2.6.1.8.8.7 1.3-.6.4-1.1.4-1.9.6-.7.2-1.3.2-1.8.8-.1.1-.3.3-.5.3 0-.1 0-.2-.1-.4-.1-.1-.2-.2-.3-.2-.2.2-.3.7-.6.5 0-.2-.3-.3-.5-.3s-.3.3-.6.2c.1-.3-.2-.5-.4-.6-.1.1-.3.6-.6.6.1-.3-.2-.8-.5-.9-.1.3-.2.8-.6.9.1-.3 0-1.1-.5-1.1 0 .4-.1.7-.5.9.1-1.2-.9-1.6-1.8-1.9-.4-.1-.4-.1-.8-.3-.2-.1-.4-.2-.7-.1-.1.3.2.9.5 1.2-.5-.1-.8-.3-1.1-.5-.2-.2-.2-.4-.4-.8-.4.9.1 1.1.5 1.7-1.4 0-1.4-1.6-1.4-1.7-.2.2-.2.3-.3.6 0 .3.1.8.3 1.1-.2 0-.6-.3-.7-.6-.1-.3-.1-.2-.1-.5s0-.9-.1-1.2c-.1.2-.3.5-.3.8.1.6-.3.9-.2 1.3M30.1 30.5c0 .6.3.9.5 1.4.3.6.3 1.6 0 2.4-.1.3-.3.6-.5.9-.3-1.6-.9-3.3 0-4.7M34 34.1c0 .4.6.8.6 1.4 0 .4 0 .7-.1 1.1-.1.5.1.7-.1 1.3-.1.3-.2.6-.2 1.1-.2-.2-.8-1.3-.6-2.3.2-.7.2-1.2.2-2 0-.2.1-.4.2-.6M32.9 37.8c-.6-.4-.9-1.5-.7-2.1.4-1.1.3-1.2.2-2.3 0-.2 0-.7.2-1 0 1 .7 1.3.7 2.2 0 .4 0 1-.2 1.6-.3.8-.3 1.4-.2 1.6M31.4 31.7c.1.5.4 1 .5 1.3.2.4.2 1.3-.1 2.2-.1.4-.5.9-.5 1.3-.1-.2 0 .2-.2-.7-.2-.9.2-1.4.3-2.1 0-.5-.1-1.4 0-2"/><g><path class="st0" d="M22 41.6s.6-.4.9-1.8c.3-1.4 2-2.3 2.5-2.4-.5.5-.9 1.2-1.3 2-.6 1.2-1.6 2-2.1 2.2"/><path class="st0" d="M30 37.5c-.4-.9-.6-1.4-1.6-2-.7-.4-1.1-.5-1.9-.6-1.2-.2-1.9.1-2.3.3-.5.2-.8.5-1.2 1.4-.3.7-.3 1.3-.3 1.9.2-.8.4-1.4.9-1.9s1-.8 1.2-.8c.8-.2 1.2 0 1.2 0-.5.1-.9.2-1.3.5-.7.5-1.3 1.3-1.5 2 0 0 .6-1.1 1.7-1.5.8-.4 1.6-.5 2.3-.3-.2.1-.5.2-.8.4-.5.4-.8 1-1.2 1.7-.5 1-1 1.6-1.4 2 .4-.1 1.5-.8 2-1.5s.9-1.7 1.1-1.9c.2-.2.7-.5 1-.4.3.1.6.3.6.3.3.3.6 1 .5 2-.2 1.7-.9 3.2-2.4 5.7s-2.3 3.4-2.9 4.7c-.8 1.9-.7 4.3 1.3 4.8.9.3 2.3-.3 2.3-.3s.4-.3.4.6l.2-3.1s-.3 1.4-1.5 1.4c-1.1.1-1.7-.2-1.8-1-.1-.8.4-2.2.8-2.9.4-.7 3.1-5 3.2-5.3.1-.2 1.1-2 1.3-3.2.2-.9.5-2 .1-3"/></g><g><use xlink:href="#SVGID_1_" overflow="visible" fill="#FDFDFD"/><clipPath id="SVGID_2_"><use xlink:href="#SVGID_1_" overflow="visible"/></clipPath><path class="st2" d="M58.3 64"/><use xlink:href="#SVGID_3_" overflow="visible" fill="#FDFDFD"/><clipPath id="SVGID_4_"><use xlink:href="#SVGID_3_" overflow="visible"/></clipPath><path class="st3" d="M60 63.4"/><path class="st1" d="M52.3 81c.3.1.7.3 1.1.5.2.1.4.2.6.2 2.1.9 4.3 1.4 6.6 1.7 2.2.3 4.4.4 6.6.2 2-.2 3.7-.7 5.7-1.3.9-.3 1.5-.6 2.3-1 .4-.2.7-.4 1.1-.7.1.3.1.6-.2.8-.4.2-.6.4-1 .5-1 .5-1.9.9-3 1.2-1 .3-1.7.5-2.5.6-1 .2-1.8.3-2.9.3-1.7.1-3.4 0-5.2-.2-1.6-.2-3.1-.5-4.7-.9-.7-.2-1.6-.5-2.3-.8-.6-.3-.9-.4-1.5-.7-.2-.1-.3-.1-.4-.3-.3.2-.4 0-.3-.1M78.1 82.8c-.3.2-.6.4-.8.5-1.2.8-2.6 1.2-3.9 1.7-.7.3-1.4.4-2.1.6-1.4.4-2.1.5-4.1.7-.7.1-1.9-.1-3-.4 2.5 0 4.6-.2 6-.5 1.8-.4 3.7-1 5.3-1.9.6-.3 1.1-.7 1.6-1 .3-.2.8.1 1 .3M51.9 83.8c-.8-.6-1.4-1.5-1.4-1.5.5.2 1.2.6 1.8 1.1.7.4 1 .6 1.9.9 1 .4 1.8.6 2.9.9 1.5.4 1.4.3 2.9.7.7.1 1.6.2 2.9.3-1.8.3-3.1.1-4.4-.1-.9-.2-2.3-.4-3.4-.7-1.9-.8-2.4-1.1-3.2-1.6"/><path class="st1" d="M82.1 80.5c-2.7 3.7-5.6 4.8-8.3 5.5-1.7.4-3.9.7-4.7.7 2-.4 3.9-.9 5.4-1.5 1.5-.6 2.3-1 3.6-1.9.1-.1.3-.2.5-.1.5.2 2.7-1.8 3.5-2.7M60.3 87.3c-.4-.1-1.7-.5-1.8-.7 1.8.4 3.4.4 5 .4h1.2c.6 0 1.5.3 2 .4-.5.1-2.6.3-3.2.2 0 0-1.8-.1-3.2-.3M75.8 80.1c-1.2.7-2.2 1.1-3.4 1.7-.2.1-.5.2-.7.1-.2-.1-.3-.3-.2-.5.3-.1.5-.2.8-.3 1.2-.4 1.8-.7 3-1.2.1 0 .6-.3.9-.5-.1.5-.3.7-.4.7M75.9 79c-.2.1-.8.4-.9.5-.9.4-1 .4-1.8.8-.3.1-1.5.6-1.4 0 1.5-.6 3-1.2 4.4-1.8 0 .1-.1.3-.3.5M79.4 75.2c1.3-.3 3.2-.3 4.5-.2v1c-1.4-.2-3.2-.4-4.5-.6-.2 0-.1-.2 0-.2M81.8 77.4c.9.1 1.5 0 1.2.8 0 .1-.2.5-.3.7-.2.6-.6.6-1.2.5.1-.7.2-1.3.3-2M75.2 77.8c0 .3-.4.5-1.1.8-.4.2-1 .5-1.3.5-.3 0-.5.1-.6-.2 1.2-.5 2-.8 3-1.3v.2M77.5 79.7c1.5.2 2.9.4 4.1.6 0 .2-.1.3-.3.2-.7-.1-1.6-.2-2.3-.3-.4-.1-.8-.1-1.2-.2-.2 0-.3-.2-.3-.3M78.7 76c.3 0 .6-.1.9 0 1 .1 3 .3 4 .5l-.2.4c-1.4-.2-3.3-.5-4.7-.6-.1-.1-.1-.2 0-.3M80.7 78.1c-.2-.2-.5-.5.1-.8-.8-.1-1.5-.2-2.2-.3-.5-.1-.8 0-.9.5-.1.4-.1.9-.1 1.4.2 0 .5.1.6.1v-1.3c0-.2 0-.5.4-.6.6.2.6.7.6 1.2v.5c0 .1.2.3.3.3.4.1.6.1 1.2.2-.8-.5-.4-.9 0-1.2M62.1 81.9c-1-.2-2-.4-3.1-.6 0-.4.9-.2 1.6-.1.9.2 1.5.3 1.5.7M57.1 82c-.9-.2-1.8-.5-2.6-.8 0-.6 2.6.2 2.6.8M59.6 82.2c.9.2 1.6.3 2.4.4 0 .4-.9.3-1.4.2-.5-.1-1.2-.3-1-.6M56.7 80.3c-.3.4-.8.3-1.2.2-.1 0-.6-.2-.6-.4 0-.1.2-.1.3-.1.2 0 .5.2.7.2.3.1.5.1.8.1"/><path class="st1" d="M80.3 81.5c-.5-.1-.8-.1-1.3-.2-.1 0-.1-.1-.1-.3.5.1 1.1.2 1.6.2 0 .2-.1.3-.2.3"/><path class="st0" d="M84.8 73.6h-2.4c-.3 0-.3-.3-.2-.5v-5.7H82v1.1c0 .3-1.7 1.5-2.5 1.1-.5-.1-.4-.3-.5-.6-.1-.5-.3-1-.8-1.2-.7-.3-2.3.5-2.8 1.2-.5.6-.5 5.3-.2 6.6H75c-.2-.1-.5-.4-.7-.8 0 0-1.3-1.7-1.3-1.8l-1.4-2.1c-.4-.6.1-.7.8-.9.6-.2.9-.5 1.5-.5.7 0 .5-.3.3-.2-.5 0-.7-.3-.8-.6-.3-.7-.9-2-1.2-2.6 0 0-.3-.4-.4-.8-.4-1-1-2.2-1.4-3.2-.3-.7-.7-1.3-.6-2.1v-1.1c-.9-.3-1.1-.1-1.7.5-.3.3-1.1.2-1.3.1.1.4.6.6.8.7.7.2.9 0 1.6-.1.2 0 .4-.1.4.1v.4c-.1 1.1-.4 2.1-.8 3.1s-.9 2-1.4 3c-.1.3-.2.6-.4.3-.3-.4-2.6-4-2.7-4.6-.1-.3.3-.3.6-.4.8-.2.9-1 1.6-1.2.2-.1.1-.3-.3-.2-.8.1-1.1-.6-1.4-1-.5-.7-.9-1.5-1.3-2.2-.1-.2-.1-.5-.1-.8V56c-.3.3-.9.2-1.3.5-.5.4-.4 1.8-1.6.8.2.2.3.8 1.1.8.4 0 .7-.1 1.1-.6.2-.3.5-.4.4-.1 0 .1-.6 1.6-.8 2.1-.3.7-.6 1.4-.9 1.9-.1.2-.2.3-.5.4-.1 0-.4 0-.4.1s0 .1.3.1c.7.1.3.7-.2 1l-.9.8c-.5.4-.8.5-1.1 0-.6-.7-1.1-1.6-1.6-2.4-.5-.7-.6-1.5-.6-2.4v-1.5c-.7.1-1.1.5-1.5.9-.5.4-.6 1-1.3 1.1.5.4 1.2.2 1.9-.4.2-.2.6-.2.6.3v.6c0 .3 0 .4-.1.6-.2.7-.5 1.3-.8 2-.2.6-.5 1.3-.9 1.6-.2.1-.4.3-.6.3-.5 0-.4.3-.3.3.6.2 1 .3 1.5.4.5.1.9.8.6 1.2 0 .1-.1.2-.2.2-.2.2-.9 1.1-1.9 2-.9.8-1.9 1.6-2.5 2-.8.5-3.2 1.8-4.1 2.3-.6.4-1.4 1-2 1-.2 0-.3-.2-.3-.6 0-1 .1-3.1.1-5.6-.5 0-.5.6-1.1.6-.4.1-.5.2-.5.3-.1.6-.1 1-.1 1.2.1 0 .3-.1.4-.1.6-.4.5-.2 1-.3v3.9c0 .2-.1.5-.4.5h-2c-.1 0-.1.3.1.3.2.1.5 0 .7 0 .3 0 .5.3.6.3 1.2 1.3 3.5 3.3 4 3.7.3.3.7.5 1 1 .4.5 1.4 2.2 1.7 2.4.6.2 1.1.6 1.7.9.9.5 1.8.9 2.8 1.3.8.3 1.5.5 2.3.7 1 .3 2.2.6 3.3.8 1.3.2 2 .3 3 .3 1.4 0 2.8 0 4.2-.1 1.1-.1 2.3-.3 3.4-.6.7-.2 1.5-.4 2.2-.6.7-.2 1.3-.5 1.9-.8.6-.3 1.7-1 2.3-1.3-.1-.2-.5-.3-.9-.1-.6.4-.8.5-1.8 1-1 .4-1.9.9-2.9 1.1-1.5.4-2.8.6-4.5.9-1.8.2-3.7.2-5.4 0-1.9-.2-3.1-.5-5-1.1-.8-.2-1.6-.5-2.3-.8-.9-.3-1.8-.9-2.3-1.2-.7-.6-.9-1.4-.9-3 0-.5.2-.7.4-.6.2 0 .3.1.5.1.5.2 1.2.4 1.7.6 1.6.6 3.1 1 4.7 1.3.5.1 1.1.2 1.8.2 0-.2.1-.3 0-.4-.2-.1-.6-.1-.5-.4 0-.2.4-.2.6-.2.4 0 .7.1 1.1.1.1 0 .1.7 0 .9.6 0 1.2.1 1.9.1.2 0 .7 0 .7.2s0 .2-1 .2c-.1 0-.1.1 0 .1s.5.1.6.2c.3.3.2.6.2 1.1 0 .7.4.6.9.7 1.1 0 1.9 0 2.7-.1.4-.1.4-.3.4-.5-.9 0-2.8.2-2.9.1-.1 0-.1-.1-.1-.3 0-.2.1-.2.6-.2.6 0 1-.1 1.5-.1.4 0 .6-.2.6-.4h-2.7c-.1 0 0-.5.3-.5 2 0 2.1-.2 3.1-.3.2 0 .7.1.7.6 0 1.1.4 1 .7 1 .1 0 .6 0 .5-.7 0-.4-.2-1 0-1.3.3-.4.8-.5 1.4-.7.4-.2.3-.3.2-.5-.1-.3 0-.5.3-.6.7-.2 1.3-.5 2-.7.3-.1.7-.3 1-.4.6-.3.6-.6 1 .2 0 .1 0 .1.1.3.3-.2.8-.3.8-.5.1-.8.6-1.3 1-1.9.4-.5.9-1.2 1.7-1.3H85c-.1-.3.2-.7-.2-.7zm-21.7-4.9c-.2 0-.3.1-.3-.7.1-1.1.3-4.8.3-5.1.1-.6.2-.6.2.3 0 .2 0 3.9.1 4.9 0 0 .1.6-.3.6zm-1.9-1.2c-.1-.1-.1-.3 0-.7.1-.2 1.3-4 1.4-4.2.1-.3.2-.5.2.1 0 .1-.3 4.4-.3 4.8 0 .2 0 .8-.2.7-.2 0-.9-.5-1.1-.7zM62 69c-.7.2-1.1.3-1.6.4-.3.1-.3 0-.2-.2.2-.4.3-.7.6-1.2.1-.1.1-.2.2-.2.4.3.7.5 1 .9.2.2.1.3 0 .3zm0-8.1c.4-.9.7-1.8 1.1-2.7.2-.5.3-.2.3 0v2.3c0 .2-.1.3-.3.4-.3.1-.6.3-1 .4-.1-.1-.3-.2-.1-.4zm-1.9 3.3c.3-.1 0-.2-.4-.2-.2 0-.1-.1.1-.2.2-.2 1.3-1.1 1.5-1.2.2-.2.7-.6 1-.5.2.1.1.3.1.4 0 .1-1.1 3.7-1.4 4.4-.1.2-.2.2-.2.1-.5-.6-1-1.2-1.5-2-.3-.3.1-.6.8-.8zm-1.9 1c.4-.3.5 0 .7.3l1.5 1.8c.1.1.1.3.1.5-.3.7-.6 1.1-.9 1.8-.1.3-.4.2-.5-.1-.4-.7-1.4-2.8-1.4-3.1V66c.1-.2.3-.6.5-.8zm1.3 5.7c.2.3.3.4-.1.4h-1.1c-.3 0-.4-.2-.4-.5 0-.1-.5-3.2-.5-3.8-.1-.3.2-.3.2 0 .3.9 1.6 3.5 1.9 3.9zm-3.4 1c-.2.1-.3.1-.4.1-.1-.1 0-.2.1-.4s0-.1.2-.2c.1-.1.2 0 .2.1s.1.3-.1.4zm-.7 0c-.1.1-.3.2-.3.2-.7 0-1.2.1-1.5 0-.3-.1-.4-.2-.2-.5.1-.1.3-.4.4-.6.1-.2.3-.5.5-.7.1-.1.1-.1.1-.2.1 0 .3.1.4.1.4.1.6.2 1.1.4.3.1 0 .5-.2.8-.1.1-.2.4-.3.5zm.7-4.4V70c0 .1 0 .3-.1.3s-.4-.1-.5-.1c-.3-.1-.5-.1-.9-.3-.3-.2 0-.5 0-.6.3-.7.5-1.1.8-1.8.1-.2.2-.7.4-.5.3 0 .3.3.3.5zm-.7-3.5c-.5.1-.5-.3-.4-.5.3-.8.6-1.5.9-2.2.1-.2.2-.2.2 0v2.1c-.1.7-.3.6-.7.6zm-7.8 13.8c-.6-.5-2-1.8-2.8-2.6-.2-.1-.9-.8-.9-1.1.1-.2.4-.2 1-.2h1c.8 0 1.1.4 1.3.7l.1.1c.3.3.5.7.7 1.4.2.5 1.1 3-.4 1.7zm2.6 2.2c-.2.1-.4-.2-.5-.4-.3-.3-.4-.7-.6-1.4-.3-1-.6-2.2 0-1.8.4.2.4.2.7.4.3.3.3.8.3.9.1.7.2 1 .2 1.7 0 .3.1.5-.1.6zm-.1-3.7c-.4-.1-.8-.5-1.5-1.1-.5-.4-1.3-1.3-.9-1.3h2.5c.6 0 .6.2.6.6.1.4 0 1 0 1.5 0 .4-.3.5-.7.3zm2 .8c-.2-.1-.4-.2-.7-.3-.2-.1-.3-.4-.3-.6-.1-.9-.1-1.3-.2-2.1 0-.3-.2-.4-.4-.4h-4.8c-.2 0 .5-.5.6-.6 1-.6 3.7-2 4.4-2.5.8-.5 1.9-1.5 2.7-2.2l1.6-1.6c.3-.4.4 0 .4.2-.2.4-.1.4-.3.7-.2.5-.5.9-.7 1.4-.4.9-1.8 2.9-1.8 3-.1.1-.6 0-.3.4.1.1.7.2.9.2.5.2 1.5.3 1.5.6s-.2.9-.2.9-1.2 2.3-1.6 3c.1.1 0 .1-.8-.1zm1.3.3c-.2-.1 0-.3.1-.4.1-.3.3-.6.4-.8l1.1-2.3c.1-.2.2-.5.5-.4.4.1.4.3.3.7-.1.4-.4 1-.6 1.4l-.6 1.2c-.1.1-.2.3-.2.4-.3.6-.8.3-1 .2zm1.1.1c-.1-.2.2-.5.3-.8l.5-1c.1-.1.4-.7.5-.9 0-.1.2-.4.2-.5.2-.6.3.1.3.3 0 .1-.6 2.3-.8 2.7-.1.2-.2.6-.4.5-.2 0-.5-.1-.6-.3zm.4 1.6c-.4-.2-.4-.5-.2-.9.4.1.8.3 1.3.4-.2.6-.6.8-1.1.5zm1.4-1.4c0 .2 0 .6-.2.5-.1 0-.4-.1-.6-.2-.1-.1-.2-.1-.1-.3l.6-1.8c0-.1.1-.4.2-.5.1-.2.1.1.1.4 0 .5.1 1.4 0 1.9zm.2-14.5c0-.5 0-1.2-.1-1.8v-.3c0-.3.1-.1.1 0 .2.3.6.9.8 1.3.2.4.4.7.6 1.1.1.3 0 .4-.3.4h-.2c-.8.1-.9.2-.9-.7zm.2 4.6v-1c0-.2.2-.1.3 0 .1.2.4 2.3.5 3 0 .1.1.3-.1.2h-.3c-.3 0-.2-.5-.2-.8-.1-.3-.2-.9-.2-1.4zm.2 3.3c0-.4 0-.5.2-.6.1 0 .1-.1.3-.1.1 0 .2.1.2.2.1.1.1.4.1.6 0 .3 0 .3-.3.4-.3 0-.5.2-.5-.5zm1 7.6c-.1 0-.2 0-.3-.1-.1 0-.3-.1-.4-.2v-.7c0-1.2-.1-2.4-.2-3.6 0-.1-.1-.5 0-.7.1-.1.1-.1.2-.1.3 0 .3.6.3.8.1.5.5 4.2.5 4.3.1.3.1.4-.1.3zm1.1.2c-.2 0-.4 0-.5-.1 0 0 0-.1-.1-.1v-.2c-.1-.3-.5-4-.6-5 0-.1.1-.2.2 0 .2.6 1.2 4.8 1.3 5.4H59zm.9.1c-.1 0-.2 0-.3-.1-.1 0-.1-.2-.2-.3-.3-1.4-1.1-4.4-1.3-5.1-.1-.4-.2-.7.2-.9.6-.2 1.3-.6 1.8-.9.1-.1.3-.2.3-.3 0-.3-.3-.1-.4-.2-.2-.3-.4-.7-.6-1-.1-.1 0-.1.1-.1H62c.5 0 .5.4.4.7-.2.9-1.9 6.6-2.1 7-.1.4-.3 1.2-.4 1.2zm1.4-.2c-.1.2-.1.3-.2.3-.2 0-.7 0-.7-.1-.1-.2 0-.3.1-.5.2-.5 2.1-7.1 2.3-7.5 0-.1.1-.7.5-.7.5 0 .3.4.3.6 0 .4-.2 1.2-.3 1.6-.3 1.4-.7 2.7-1 4.1-.1.5-.3 1-.4 1.6-.4 0-.5.4-.6.6zm2.1.1c0 .3-.1.4-.3.4-.1 0-1.1 0-1.3-.2-.2-.2-.1-.4-.1-.7 0-.2.1-.4.2-.7.3-1 1.1-4.3 1.3-5.1 0-.2.1-.1.1.2v4.8c.2.4.2.9.1 1.3zm6.3-.9c0 .6-.1.7-.5.8-.3.1-.7.2-.8.1-.1-.1-.1-.3-.1-.5.2-1 1.1-5.9 1.2-6.6 0-.2.1-.5.1-.3 0 .6.1 3.9.1 4.9V78zM66 69.8h.4c.6.2 1.2.3 1.8.6.2.1.6.2.5.7-.3 1.2-.7 2.4-1.1 3.6 0 .1-.1.4-.2.6 0 .2-.1.4-.3-.1-.3-.9-1.5-5-1.6-5.2-.2-.5-.1-.7.4-1 .2-.1.1-.1.3-.2l-.3.6-.1.1c-.2.2 0 .3.2.3zm3.2 1.1c.1-.4.3-.3.2.1-.1.6-1.2 6.8-1.5 7.7-.1.3-.6.5-1 .5-.2 0-.2 0-.1-.2.7-2.3 1.7-5.9 2.4-8.1zm.4-8c0 .3.1 4.3.1 5 0 .3-.4.6-.6.8-.2.2-.6 0-.6-.2 0 0 .9-5.3 1-5.8 0-.3.1-.2.1.2zm-2.4 4.8c.3-.2.4-.1.4-.4 0-.2-.3 0-.2-.3l.3-.7c.4-.7.8-1.6 1.1-2.2.1-.2.1-.1.1.1 0 .1-.7 4.2-.8 4.3-.1.1-.1.5-.9.6l-.9.3c-.1 0 0-.1 0-.1s.8-1.4.9-1.6zm-2.8-4.4c.1.2 1.8 2.6 2.5 4 .1.2-.1.4-.3.4l-.6.2c-.4.1-.6-.2-.7-.6-.1-.5-1.1-3.7-1.1-3.9 0-.3.1-.2.2-.1zm-.8-3.2c0-.6-.1-1.1-.1-1.6 0-.6 0-.8.1-.5.5.8 1 1.5 1.4 2.2.2.4-.1.3-.3.4-.3 0-.5.1-.8.1-.2-.1-.2-.1-.3-.6zm.3 8.1c0-.9-.1-2.5-.1-3.7-.1-1.3 0-1.2.2-.4.2.7.8 2.7.9 3.3.1.2.2.7.1.8-.3.1-.6.2-.8.3-.2 0-.3 0-.3-.3zm1.9 11.1h-1.1c-.3 0-.3-.3-.3-.5 0-.4-.1-3.2-.2-4.1 0-.8 0-1.5-.1-2.4 0-.2-.1-1.1 0-1.1s.3.9.4 1c.2.9.5 1.9.7 2.8.3 1.3.6 2.5.9 3.8.1.4.1.5-.3.5zm.6-.9c-.2-.9-2-7.6-2-8.1 0-.2.2-.4.5-.6.3-.2.4.3.4.5l1.2 3.9c.2.7.4 1.3.6 2 .1.2 0 .4 0 .6 0 .2-.4 1.4-.5 1.6-.1.2-.2.2-.2.1zm1.8 1.9c-.9.1-1.3 0-1.6-.6.9-.2 1.9-.4 2.9-.6-.1.6-.6 1.1-1.3 1.2zm1.3 1.8c-.2 0-.4 0-.4-.4-.1-.3 0-.5.4-.5.2-.1.3.2.3.4 0 .3-.1.5-.3.5zm.3-19.9c0-.1 0-.6.2-.2.1.1 1.1 2.6 1.5 3.4.1.3.1.5-.2.8-.4.4-.7.8-1 1.2-.2.2-.2.1-.2-.1-.1-.6-.2-4.1-.3-5.1zm.3 6.3c0-.2.1-.4.3-.6.4-.6.9-1.1 1.4-1.6.1-.1.1 0 .1 0 .3.7.6 1.3.9 2 .2.5-.1.9-.6.9-.4 0-.9 0-1.3-.1-.5-.2-.8-.3-.8-.6zm.6 9.1c-.1 0-.2 0-.3-.4 0-.8-.1-3.5-.1-4.3 0-.1.3 1.2.4 1.5.1.5.6 2.4.7 2.8 0 .2-.3.3-.7.4zm2-.8c-.1.2-.5.3-.7.4-.3.1-.4-.2-.6-1-.4-1.4-.7-2.7-1-4.1-.1-.3-.1-.6-.2-1-.1-.3.1-.3.2-.1.2.3 2 4.8 2.1 5.2.2.2.2.4.2.6zm1.2-.3c-.6.2-.7.2-.8 0-.7-1.5-1.7-3.8-2.3-5.3-.3-.7.2-.8.3-.5.5.8 3.2 4.8 3.4 5 .4.4-.2.6-.6.8zm8-3.4c0 .2 0 .5-.2.5h-1.8c-.5 0-1.1.2-1.3.3-.5.3-1 .5-1.8 1-.3.2-.4.2-.7.3-.1.1-.3.1-.5.2.6-1.2 1.5-2.5 2.4-2.6.4 0 .8.4 1.2.3.6 0 1.2-.5 1.5-.9.6-.6 1.2-.5 1.2-.4v1.3zm0-2c-.6-.2-1.4.3-2.1.9-.7.6-.9.3-1.9-.1-1-.4-2.3 1.2-2.3 1.2s-.3-2.6.2-3.8c.5-.6 2.2-1.7 2.4-.4.2 1 1.1 1.2 1.5 1.3 1.1.1 2.2-1 2.2-1v1.9z"/></g><g><path class="st1" d="M26.9 64.1c-.3 1.3-.3 1.9-.2 2.4.2-.2.3-.3.4-.3-.1.4-.2.7-.2 1 .1-.2.3-.4.5-.4-.1.4-.1.7 0 1.1.2-.4.4-.8.6-.6l.2.1c.2.1-.2.7-.2.8-.1.1.2.4.5.5-.3 1.1-.6 2.1-.3 3.1.1.4.2.7.7 1-.2-.9-.2-1.5-.1-2.2.1-.5.3-.9.5-1.3.1-.2.4-.1.5.1.2.4.2 1.2.2 1.7 0 1.4.2 2.2 1.6 2.9.5.3 1 .1 1.3-.1.2-.2.6-.6.3-.9-.3-.5-.2-.6.3-.5.6.1 1-.3 1.2-.7.1-.2.1-.9-.3-.8-1.1 0-1.2-.6-1.4-1-.2-.4-.1-1.7.4-1.8.2 0 .3-.3.3-.6-2.7 0-5.4-1.2-6.8-3.5m3.8 7.6c-.1-.7-.2-1.2-.2-1.9 0-.6.3-.7.9-.7.5 0 .6.2.5.5-.5 1-.3 1.9.1 2.7-.5.6-1.2 0-1.3-.6"/></g><g><path class="st0" d="M33.4 38.7c0 .4.8 1.9 1.3.7.6-1.2 1.6 1.2 3.7 1.2s3-.6 3.6-.5c.6.1 1 .6.7 1.3-.5 1.5-1.5 2.4-3.8 4.6-.8 1-1.4 2-1.4 2.1-.2.4-.2.7 0 .8.2.1.3 0 .5-.3.4-.5.5-1.2 1.2-1.6.4-.3 2.4-1 2.4-1s1.1-.4 1.6.2c.6.6.9 2.5.8 3.3-.1.8-.4 2.4-2.2 3.7-1.8 1.2-1 2.3-.6 2.8s2.7.2 2.7.2.9 0 1.4.8c.3.4.3 1 .3 1s-1 .7-1.8.6c-1.3-.1-1.9-.7-3-.7h-2.9s-1-.1-.7-1c.4-1.4 1-2.9.9-3.8-.1-.5-1-.5-1.4-.4-.3.1-.6.3-1.2.1-.2-.1-.2-.6-.3-.9-.1-.7-.2-1.7.1-2.7.2-.5.1-.5.2-.6.2-.4-.3-.8-.6-.1-.5 1-.5 1.9-.5 2.5 0 1.3.8 3.8.6 5-.2 1.2-.5 2-1.3 2.8-.7.9-3.5 4.2-3.5 4.2s-1.1 1.3-.4 2.8c.5 1 1.6.8 2.1.8.4 0 .7-.2 1.3.4.6.5.7 1.2.1 1.3-2.7.5-3.9-.1-5.3-.9s-1.2-3.1-1.2-3.1-.1-1.1 1.7-2.4c.4-.7.8-1.6.5-2.2-.3-.6-.9-1.7-.9-1.7s-.6-2.6-.5-3.6c.1-1 0-2.6.8-4.3.8-1.7 2.5-3.7 3.2-5.4.7-1.7 1.5-3.7 1.8-6"/></g><g><path class="st1" d="M35.5 31.3c0 .2 0 .3-.1.4-.5-.1-.7-.5-.9-.8-.6.1-.9-.1-1.4-.5-.3-.3-.6-.8-.8-1.3-.3 0-.8-.4-1.1-.7-.5-.6-.5-1.1-.9-1.8-.1 1.3-1 2.3-.4 3.5.2-.5.4-1 .7-1.3 0 .8 0 1 .1 1.6.1.4.2.8.4 1-.1-.5 0-.6.1-.9.1-.4.3-.5.5-.7.1.3.1.4.1.7v.8c.1.6.3.9.4 1.2 0-.4 0-.8.1-1.1.1-.3.2-.4.4-.6.4.6.3 1 .4 1.6.1.6.4.8.5 1.2.2-.5-.2-1.4.5-1.9-.1.8-.1 1.3.2 1.9.1.3.5.6.6 1.1.1-.7-.3-1.4.1-2.2.3.3.2.6.3 1 .1.5.4.8.3 1.3.7-.3.4-1.6.4-2.3 0-.5.1-.4.2-.8-.2-.2-.5-.3-.7-.4"/><path class="st1" d="M37.6 29c0-.2 0-.4.2-.6.2.1.4.3.5.6.1.4.1.9-.1 1.1.8-.4.8-1.1.6-1.7-.1-.5-.6-.7-.5-1.1.6-.1.8.7.8 1.1.2-.3.3-.9.2-1.2-.1-.3-.5-.6-.3-1 .2 0 .3.2.4.4l.3.6c.1-.4.1-.8-.1-1.2-.1-.4-.4-.4-.5-1 .3-.1.3.3.7.4 0-.4.1-.5-.3-1.1.1-.1.4 0 .5.1 0-.4-.4-.9-.6-1.1.2-.1.3 0 .4.1 0-.3-.2-.7-.4-.8-.2-.2-.4-.2-.6-.3-.2-.2-.5-.6-.5-.9.2 0 .5-.1.7-.2.4-.2.6-.4.8-.7.3-.4.4-.9-.1-1.3-.3-.3-.8-.4-1.2-.3-.4.1-.7.6-1.2.3-.1.3-.2.3-.3.3-.1.1-.5.1-.8.1-.3 0-1.6 0-1.9.1-.7.1-3.2 1-3.1.4-.1.6-.9-.3-1.8.5-.5.4-.6 1-.4 1.5.3.6.9.8 1.7.7 0 .3-.1.5-.3.7-.2.2-.5.3-.6.8-.1.6-.1 1.6.4 2.1-.1-.6-.1-.9.1-1.2.1-.3.4-.5.5-.5-.1.4-.2 1.1-.2 1.6 0 .6 0 .9.3 1.4 0-.6.2-1.4.6-1.5.4.6-.1 1.1-.1 1.6-.1.5.2.8.6 1-.1-.3 0-.5 0-.8.1-.3.3-1 .8-.9-.5.9-.4 1.4-.2 2.1.1.4.6 1 .9 1-.2-.3-.4-.9-.4-1.2 0-.6.1-1.2.3-1.3.1.1.3.3.2.8-.1.5-.1.6 0 1.1.1.4.4.7.6.9-.2-1 0-2 .4-2.3-.1.8-.1 1.3.1 1.8s.4 1 .4 1.4c.2.2.4.3.6.5 0-.1 0-.2.1-.3.1-.6-.4-1.4-.3-1.7.3 0 .6.6.7 1 .4-.2.8-.5 1.2-.7.3-.6.3-.9.2-1.2m.6-9.2c.1-.4.5-.6 1.1-.6.3 0 .3.3.1.4-.6.1-.7.5-.5 1.1-.5 0-.8-.5-.7-.9m.6 3.5c.2.4 0 .8-.2 1-.4.4-.8.4-1.1.2.1-.3.3-.4.6-.6.3-.1.7-.4.7-.6m-7.9-1.4c-.4-.1.1-.6-.2-.7-.3-.1-.5.1-.6.3-.2-.3-.1-.9.7-.9.4 0 .6.3.6.7-.2.3-.3.7-.5.6m1.1 3.4c-.2-.2-.3-.4-.2-.9.2.3.5.4.8.5.3.1.6.2.6.5-.3.4-.9.2-1.2-.1m4.8.8l-.4.2c-.1.2-.1.5 0 .8.1.4 0 .7-.3.8-.3.1-.5 0-.7-.3-.2-.4-.2-.7-.1-1h-.9c-.2 0-.4 0-.6-.2-.2-.2-.4-.7-.1-.8.3-.2 1-.2 1.2-.2-.2-.5-.7-.5-.8-.9-.1-.3-.3-.7-.1-1.1 0 0-.5.1-.6.1-.5 0-.7-.3-.8-.6-.1-.3-.2-.6-.5-.8.1-.2.2-.2.4-.2h.6c.2 0 .5 0 .7-.1.3-.1.3-.1.6-.3.1.2.2.5.1.9 0 .4-.1.9 0 1.3.1.5.4.7.9.6.5-.1.5-.3.5-.7-.1-.9-.7-1.2-.4-2.3.3.2.7.2 1.2.1.3-.1.6-.3 1.1-.1-.3.4-.2.5-.2.9-.3.7-1.1.8-1.6.8.4.5.4.9.3 1.3-.1.5-.3.4-.3.9.3-.1 1.1-.5 1.3-.3.2.5.2.9-.5 1.2"/><path class="st1" d="M41.3 32.1c-.3-.3-.7-1-.6-1.3.4 0 .9.7 1.3 1.1.4.5 1.1.6 1.3 1.2 0-.8-.3-1.4-.8-1.9-.3-.2-.7-.5-1.1-.8.1-.1.1 0 .3 0 .2 0 .5.2.6.2.3.2.4 0 .8.3.1-.1-.4-.7-.6-.9-.2-.2-.5-.4-.8-.4-.5-.1-1.1-.1-1.5-.3-.4-.2-.5-.2-.9-.5-.2.9-.4 1.2-1.1 1.7-.2.2-.4.3-.5.2-.1-.1-.1-.2-.1-.3V30c-.4.2-.8.5-1.2.7.2.5.1.9 0 1.4-.2.8-.1 1.5.1 2.2.1.5 1 1.3 1 1.7.1-.4-.3-1.3-.4-1.5-.1-.4-.1-.7-.1-1.1 0-.4.1-1.2.2-1.2.2.2.4.8.4 1.4 0 .6.2 1 .5 1.4.2.2.5.2.6.7.1-.4.1-.6 0-.9-.1-.6 0-.7 0-1.3 0-.5 0-.5-.1-.9-.1-.3 0-.7.1-.9.2.1.4.7.4 1 0 .3 0 .9.2 1.2.2.5.8.8.8 1.2.3-1 .2-1.8-.1-2.8-.1-.4-.3-.8-.3-1.3.4.1.7 1.2.8 1.6.1.3.1.3.3.5.2.3.4.5.7.6.6.2.7.6 1 1.1.1-.2 0-.6-.2-1.1 0-.8-.3-1-1-1.6M42.4 27.1c-.2-.7-.8-.6-1.2-.9-.1-.1-.3-.4-.4-.6-.1.2-.1.5.1.7.2.2.6.4.8.6.3.3.3.7.8 1-.8.4-1.3-.7-1.8-.5.2 1 1.3.8 1.8 1.6-.5-.1-.8 0-1.3 0-.2 0-.6-.1-.8-.2-.5-.3-.5-.5-.3-.9.2-.6.5-.8.3-1.5 0-.2-.1-.4-.1-.6 0-.5.6-1.4.1-2 .2.2.5.4.6.8.1.6.1 1.1.8 1.3.8.4.6 1.1.6 1.2M57.8 41.2c-.6.1-1.3.3-1.9.4-.6.1-1 .1-1.3-.5-.3-.5-.5-.5-.5-.5s0 .2-.4.3c-.1 0-.5 0-.7-.1-.4-.1-1-.2-1.4-.2.2.2 0 .5-.2.5-.6.1-1.5.1-2.1.2.4.2.5.8-.1 1-.4.1-1 .1-1.4.4.5.4.1.7 0 .8-.2.2-.4.3-.7.5-.3.1-.8.3-.9.5.7.2-.1.9-.4 1.2-.3.3-.4.4-.5.7.4 0 .9.1.7.5-.3.4-.7 1.1-.8 1.4l-.3.6c1-.5 1.3-.8 2.1-.2.2.1.3.2.5.1.3-.1.5-.2.7-.3.5-.3.7-.2.9.3.8-.8 1.6-1.1 2-.6.3-.3.6-.7.9-1 .4-.5.9-.6 1 .1l.4-.8c.2-.3.3-.8.6-.9.1 0 .3-.1.4.2.1-.2.1-.4.1-.5 0-.5.1-.9.1-1.4.4.2 1 1.8.9 2.4 0 .4-.2.3-.2 0s-.1-.5-.2-.7c-.2-.2-.2-.1-.3.2-.1.6-.2 1.3-.3 2 0 .2-.2.2-.1 0v-.3c0-.3 0-1-.3-.8-1.2.9-.8 2.5-1.5 3.6-.1.2-.2.2 0-.3.1-.3.2-.7.1-1.1 0-.3 0-.5-.2-.4-.1 0-.2.1-.3.1-.4.2-.8.5-1.1 1-.2.3-.5.7-.7 1-.2.2-.2 0 .1-.4.2-.4.3-.5.4-.8 0-.2-.1-.2-.2-.1-.2 0-.5.2-.4 0 0-.1.5-.2.8-.3.3-.1.3-.3.7-.5-.5.1-.9.1-1.3.2-.7.2-.9.9-1 1.5-.1.3-.2.7-.5.9l-.3.3c.2.1.4.3.6.4.5-.3.9-.5 1.4-.7.7-.3 1.8-.6 1.4.1.3 0 .6-.3.8-.4.5-.5.7-1 1.3-1.1h.4c.2-.3.5-.5.7-.7-.1 0-.3-.2-.3-.5 0-.2.1-.5.1-.6.1-.4.4-.7 1.1-.5 0-.4 0-.7-.1-1-.1-.7.3-.8.9-.7-.1-.5-.2-.9-.3-1.3 0-.2-.1-.4-.2-.6-.4-.7-.4-.8.2-1.2.6-.4 1.3-.6 1.9-.7-.4-.2-.6-.5-.8-.7m-3.7 2.1c-.4.3-.6.6-.6 1 0 .5-.1 1-.3 1.4 0 .1-.2.2-.1-.2s0-.8-.2-1.2c-.6.9-1.1 1.7-1.7 2.5-.1.1-.2.1-.1-.1.3-.7.8-1.4.9-2.1-.8.4-1.3.8-1.6 1.4-.3.5-.6 1.1-.9 1.7-.1.2-.3.2-.2 0 .1-.4.4-.8.4-1.3-.9.5-2 1.2-2.9 1.7-.2.1-.3 0-.1-.2.7-.6 1.6-1 2.3-1.8-.6-.2-1.2 0-1.7 0-.1 0-.2-.1 0-.1.7-.2 1.4-.3 2.2-.5.7-.2 1.4-.5 1.9-1.2-.8.1-1.6.2-2.3.3-.3 0-.3-.1 0-.1.1 0 1.5-.4 1.6-.4.9-.2.7-.1 1.7-.3.2 0 .4-.1.5-.3-.1-.2-.3-.3-.5-.3-.5-.1-1-.1-1.6-.1-.2 0-.2-.1-.1-.2.5-.1 1-.2 1.5-.2s1 .1 1.5.1c.5.1 1 .1 1.7 0-.8.1-1 .3-1.3.5M79.2 34.5c0-.2-.3-.6-.1-.8.1-.1-.1-.3-.1-.4 0-.1-.2-.3-.2-.4 0-.2.1-.2 0-.4-.1-.4-.4-.8-.5-1.1-.1-.4-.1-.6-.2-.8 0-.1-.3-.3-.4-.3-.2-.3-.1-.4-.3-.7-.2-.3-.6-.5-.8-.7-.2-.2-.3-.5-.5-.6-.1 0-.3 0-.4-.1-.4-.5-.9-.4-1.2-.1l-1.2 1.8c.1 0 .1.1.2.1 0 0 0-.1.1-.1.3-.4.7-.8 1-1.1.1-.1.4-.4.7-.2.1.1.2.2.1.4-.2.4-.6.8-.9 1.1.3-.2.6-.5 1-.8.2-.1.4-.3.5-.2.2.2-1.1 1.3-1.4 1.6.3-.1 1.3-.9 1.5-1 .2-.1.3-.1.4 0 .1.1.1.2 0 .3-.3.5-1.8 1.3-2.1 1.6 1.3-.7 2.4-1.3 2.7-.9.1.1 0 .3-.2.5-.2.1-1.3.7-1.6.9.4-.1 1.4-.6 1.7-.6.2 0 .4-.1.6.2.1.2-.3.4-.5.5-.2.1-.6.2-1 .3.5 0 1.2-.1 1.5-.1 0 0 .2-.1.2.1.1.3-.4.3-.5.4-.4.1-1.9.5-1.9.5.5-.1 1-.2 1.5-.2.3 0 1.1 0 1.2.2.1.2 0 .5-.3.5-.6 0-1.3.1-2 .2h1.7c.3 0 .7 0 .8.3 0 .1 0 .3-.1.3-1.8.1-2.1 0-3.2 0 0 .1-.1.2-.1.3h1.2c.8 0 1.3.1 2.1.1s1.1-.3 1-.6"/><path class="st1" d="M74.7 34.7c.2-.3.1-.4.3-.6-.1 0-.5-.1-.4-.2.2-.2 0-.4.3-.5-.5-.2-.8-1.5-.6-1.6-.2-.1-.6-.4-.6-.7-.1-.2.1-.6.3-.7-.3 0-.4-.3-.3-.6 0 0-.1-.1-.2-.1 0 .1-.1.1-.1.2-.2.3-.3.3-.6.2-.2-.1-.7-.1-.6-.2-.1 0-.2 0-.4.1-.3.1-1.1-.2-.8-.3-.4-.1-.8 0-1.2.2-.1-.1-.1-.2-.1-.2s-.6.3-.8.5c-.2.3-.6 1.1-.8.8-.2.3-.2.6-.3.9 0 .1-.2.5-.3.3-.2.1-.2.4-.2.7 0 .1.1.3 0 .4-.2.4 0 .7.2 1 .2.3 0 .7.5.8.4.1.4.7.1 1-.4.5-.8.5-1.4.3.1.4 0 .6-.1.7.2.3.3.5.4.8.7-.3 1.3-.7 1.9-1.3.3-.3.6-.2.8.1.1.1.2.3.4.4.3.2.6.4.8.5-.1-.4 1.2 0 1.6 0-.3-.2.7-.4 1.1-.6-.4-.6.6-.4.9-.8-.3 0-.4-.1-.3-.3.3-.2.5-.5.7-.6-.2-.1 0-.4-.1-.6.1 0 .3-.1.4-.1 0-.1.1-.2.1-.3h-.6zm-1.3 1.5c-.6.3-.7.8-1.3 1-.1 0-.3.1-.4.1-.3 0-.1-.3-.1-.5-.2.2-.4.4-.7.3-.2 0-.1-.4.1-.5-.1.1-.3.1-.3.1-.2 0-.4 0-.5-.2 0-.1 0-.2.1-.4-.6.1-.9-.1-1-.5 0-.3 0-.4.1-.5-.1 0-.4.1-.6.2-.3 0-.3-.6-.2-1-.1.2-.3.4-.3.2-.2-.4.1-.4.1-1 0-.2.2-.4.3-.6-.4.1-.7.1-.9 0 .3-.5.7-.8 1.1-1-.4 0-.5-.1-.5-.3 0-.1 0-.1.1-.3.2-.4.6-.7.9-1 .4.6.8.5 1.2.1.1-.1.5-.1.6-.1.2.3.4.3.8.2.4-.1.8.1 1.2.2.2 0 .2.1 0 .2-.1.1-.2.1-.3.2l-.4.4c.1.1.9-.6 1.1-.2.3.1.3.3.2.7-.1.2.3.5.4.8-.2.3 0 .6 0 1 .2 1-.7 2.9-.8 2.4M66.2 45.1c.3-.2.5-.4.7-.6 1.1-1.3 1.7-2.6 2.5-4 .1-.3.3-.2.2 0-.2.6-.4 1.2-.7 1.8-.1.2 0 .3.1.2.3-.1.7-.2 1-.3.8-.4 1.1-.6 1.6-1.3.1-.1.5-.7.6-.7.1-.1.3 0 .2.1-.4.6-.8 1.2-1.1 1.8 1.5.3 2.7-.4 3.7-1.4.2-.1.3 0 .1.2-.4.4-.7.8-1.1 1.2 1.2.4 2.6-.2 3.1-.8.1-.1.3-.1.1.2-.2.2-.4.5-.7.7.9 0 2-.3 2.9-.5.2-.1.3.1 0 .2-.6.2-1.1.4-1.7.6-.4.1-.8.2-1.2.2-.2 0-.2.1-.2.2s.1.2.1.2c.1.1.3.2.4.2.2.1.4 0 .6.1.1.2-.3.1-.5.1-.1 0-.4-.1-.6-.2-.5-.4-.9-.6-1.5-.6h-.9c.1.2.3.5.6.7.2.1.4.3.6.4.1.1 0 .2-.2.1-.7-.5-1.4-1.1-2.2-1.3-.7-.2-1.8-.1-2.4.1-.2.1-.1.1 0 .2.7.3 1.4.4 2 .9.2.2.1.3-.1.2-.2-.1-.3-.2-.5-.2-.9-.3-1.8-.6-2.7-.3-.4.1-.8.3-1.1.6-.3.3-.2.7.2.8.7.1 1.3.3 1.8.9.3-.4.5-.5.4-.9.7.2 1.1.7 1.4 1 .1-.2.1-.3.2-.5s.3-.2.5-.2c.4-.1.6.1 1 .4.6-.7.9-.7 2.3-.2-.1-.6.3-.9 1-.7.7.2.9-.1 1.4-.7.2-.2.6-.3.8-.5-.5-.5.2-.8.3-.9.7-.3 1.2-.6 1.6-1.3.2-.3.5-.4.6-.5-1-.2-1.4.1-2.1.1-.4 0-1 0-.5-.9-1 0-1.6.3-2.2.2-.2 0-.3-.1-.4-.3 0-.1 0-.3.1-.5-.2.1-.4.1-.5 0-.3-.2-.1-.4 0-.5.1-.2.3-.3.4-.5-.4-.3-.8-.6-1.2-.8-.3.2-.5.5-.8.7-.4.3-.8.6-1.2.8-.2.1-.3 0-.5-.2-.1-.1-.3-.3-.6-.4-.5 1.1-1.6 1.4-2.1.6-.3.1-.6.3-1 .8-.2.3-.5.5-.8.5-.2 0-.3 0-.4-.2-.2.1-.5.4-.6.6-.3.4-.5.9-.3 1.5.1.4.1.8 0 1.2-.1.4-.3.7-.6 1 0 .3 0 .5.1.8-.2 0-.1-.1 0-.2"/><path class="st1" d="M65.8 49.9c-.3.1-.6.2-.9.4-.4.2-.9 0-.7-.5.3-.4.5-.9.8-1.2.3-.3.7-.6 1.2-.7 0-.2 0-.3-.1-.5-.3.1-.6.1-.9.2-.4.1-.4-.2-.4-.4.1-.7.5-1.4 1.1-1.8 0-.3-.1-.5-.1-.8-.3.3-.8.5-1.3.6-.1-.5-.6-1.1.2-1.2-.3-.3-.6-.5-.8-.8-.2-.3-.3-.7-.4-1-.4-1 .2-2.8 1.2-3.3.2-.1.5-.2.7-.1.2.1.3.4.4.6.2-.3.3-.7.5-.9l.6-.3c-.1-.3-.2-.5-.4-.8-.1.1-.3.2-.5.2-.5.1-1.1.3-1.6.5-.1 0-.3.2-.5.2-.8.7-.9.7-1.3.8.6.5.1 1.1-.3 1.4-.3.2-.8.1-1-.1-.2-.1-.3-.2-.4-.4-.2-.3-.3-.8-.2-1.1-.2-.1-.5-.1-.7-.2v.2c-.1.1-.3.1-.4.1h-.7c-.5-.1-.9-.3-.6-1-1.6 1.2-3.6.7-4.6-.5.1.4.3 1.1.4 1.3.4.6.8.9 1.4 1.4.1-.5.8-.6 1.4-.4.2.1 1 .3 1.4.5.1.1.3.1.3.4 0 .2-.2.3-.4.3s-.4.1-.6.1c.3.2.5.5.7.7.6-.1 1.2-.1 1.8 0 .6.1.7.2.9.5.3.4.1.7.1 1 0 .1 0 .5.1.5.4-.6.7-.6 1.1.2.2.4.4.7.5 1.1.2.5.2.8-.3 1.3-.3.2-.4.4-.4.7 1-.7.9 1.2.9 1.4 0 .7-.6 1-.9 1.6-.1.2-.2.2-.3.5.5-.4.6 0 .5.5v.3c.7.3 1.4.6 2.1.5.2-.6.7-.9 1.3-1.2.3-.1.5-.2.8-.3 0-.2 0-.4-.1-.6-.1 0-.3.1-.6.1"/><path class="st1" d="M80.4 48.9c0-.3.2-.6.5-.9-.8-.4-1.6-.4-2.4-.5-.4 0-.5-.3-.3-.7.1-.1.1-.2.4-.4-.7-.2-1.3-.2-1.8-.1-.2 0-.4 0-.5-.1-.1-.1-.1-.2 0-.5-.2-.1-.6.1-.8.1-.7.1-1.5-.2-2.2.2-.1.1-.5.1-.6-.2v-.2c-.1 0-.3.1-.4.1-.6.2-1.1.3-1.7 0h-.2c-.2 0-.5.1-.7.2-.4 0-.7-.1-1.1 0-.2 0-.4.1-.6.2-.1.1-.3.1-.3.2-.4.7-1 .8-1.6 1 0 .2 0 .3.1.5.1 0 .2 0 .3-.1.5-.1.9-.2 1.1.5 0 .2.3.2.4.4.1.1.2.3.2.4 0 .1-.2.2-.3.2-.5.1-1 .3-1.5.4 0 .2 0 .4.1.6.2-.1.3-.1.5-.2.5-.2 1-.3 1.5-.4.4-.1.7-.1 1.1-.1.8 0 1.1.2 1.6.7.1.1.3.3.5.4 0-.2 0-.3.2-.4.1-.1.5 0 .7.1.4.2 1.3.8 1.5.9 0-.3.2-.3.4-.3.9 0 3.7 2.3 4.6 4.1.3-.5.4-.8-.4-1.6-.5-.6-.9-1-1.4-1.6-.1-.1-.4-.4-.3-.7.1-.2.3-.2.5-.2s.3.1.5.2c.2-.2.2-.4.1-.6.4.2.7.3 1.3.2-.1-.2-.1-.3.2-.4.7-.1 1.3 0 2 .2 0-.6-.5-1.2-1.2-1.6m-.9 1c-.5-.4-1.3-.8-2.2-1 .3.4.6 1 .8 1.3.1.2 0 .3-.1.1-.8-.9-1.8-2.1-3-1.8.4.6.6 1.1.8 1.8 0 .2-.1.2-.2 0-.1-.4-.3-.8-.6-1.1-.4-.4-.7-.7-1.1-1-.3-.3-1.1-.4-1.4 0 .6.5.9 1.1.9 1.5 0 .1-.1.2-.2 0-.3-.8-1.5-2-2.8-1.6.4.4.7.7.9 1.2.1.3-.1.3-.2.1-.6-1.1-1.8-1.6-3.2-1.9 1.3 0 2.6-.1 3.8-.8.1-.1.3.1.1.2-.2.2-.4.4-.6.5 1.5.4 2.8 0 4.3-.7.2-.1.2.1.1.1-.3.2-.8.5-1.2.8.9 0 1.3.2 1.8.1.4-.1.9-.1 1.3-.2h.3c0 .1-.2.1-.3.1-.4.1-.7.1-1.1.3 1.4.4 2.8 1 3.4 1.6 0 .3-.1.4-.3.4M61.1 38.4c1 0 1.4-.8 2.2-1.2.1-.1.3-.1.3-.2-1 0 .7-1.1.6-1.8-.5.2-.3-.3-.2-.5.2-.7.2-.7.5-1.2 0-.1.3-.6.3-.8-.2.1-.3.1-.5.1 0 0 .3-1.8.3-2-.2 0-.6.2-.6-.1.1-.7.2-1.1.5-1.6-.1 0-.7.1-.5-.6.1-.3.4-.8.3-1.2-.8.3-.3-.6-.1-.9.1-.2.3-.3.6-.5-.3 0-.5 0-.7.1-.4.2-.5.2-.9.4-.8.5-.8.5-1.4-.2-.6.7-.9 1.3-1.3 2-.2.2-.4 0-.7-.4-.3.4-.3 1.3-.4 1.9-.1.4-.3.4-.3.4-.1 0-.2 0-.3-.1-.1.2-.1.2-.1.5-.1.4-.1.8-.1 1.2 0 .3-.1.9-.5 1.1.3.3.5.7.6 1.2.1.5.1.7-.2.9-.2.1-.4.1-.6.1 0 .2.1.5.2.8.3.5.5 1.4.2 1.8.5-.1 1 .2 1.4.6.2.2.3.4.4.6.2.1.5.1.7.2-.1-.4.1-.6.3-.6m-1.6-2.7c-.2-.1-.4-.4-.5-.6-.1-.2 1.1.7 1.6.8 0-.6.1-1.4-.3-1.9s-.7-1.1-.9-1.7c-.1-.1-.1-.4-.2-.7 0-.2 0-.3.1-.1.4.9.7 1.5 1.4 2.1.7-1.4-.1-2.4-.2-3.4-.1-.6.1-.2.1-.1.2.5.3.8.7 1.1.1.1.2 0 .2-.1.1-1.1 0-2.2 0-3.3 0-.1.1-.2.2 0 0 .5.1 1.2.3 1.7 0 .1.1.1.1 0 .4-.8.8-1.7 1.2-2.4.1-.2.2-.2.1.2-.5 1.3-.9 2.6-1.4 3.9 0 .1 0 .1.1.1l.8-.8c.2-.2.7-.5 1-.4.3 0-.2.2-.4.3-1.4 1-2.2 3.2-2.1 5.3 1-.8 2.3-2.4 2.6-2.7.3-.4-.1.5-.2.6-.7 1-1.3 1.7-2.2 2.5-.2.2-.4.5-.4.8 0 .2 0 .2.1.2.3-.2 1.1-.7 1-.5-.4.4-1.1 1.2-1.2 1.2-.1.1-.3 0-.3 0-.1 0-.1-.2 0-.3-.1-.9-.7-1.3-1.3-1.8M93.1 39.7c0-.1-.7-1.7-.8-2.3-.1-.9 0-1.8.1-2.7 0-.1.1-.3 0-.3-.9-.8-1.6-1.7-2.6-2.5-.5-.4-1.4-1-3.4-2.2-1.2-.6-1.8 0-2.5.9-.5.6-.8 1.2-1.3 1.8-.1-.2-.1-.3 0-.6.2-.3.4-.7.1-1.1-.5-.6-1-1.2-1.5-1.9-.3-.4-1-1.8-1.2-2.4-.3-.5-.8-.7-1.4-.8-.8-.1-1.6-.1-2.3-.3-.7-.1-1.3-.4-2-.6-.4-.1-.8 0-1.1 0-.3.1-.7.2-1 .3-.3.1-.6.1-.6.5 0 .2-.2.5-.4.6-.9.6-1.6 1.3-1.7 2.5.8.1.7-.3 1.1-.7v.8c1.2 0 2.3-.8 1.9-1.9.1 0 .1-.1.1-.1.5.2.9.2 1.3-.2.2-.1.5-.1.7-.1 1 .1 2.1.3 2.9 1 .8.6 1.4 1.2 1.7 2.2.5 1.6 1.1 3.1 1.7 4.7.1.3.3.5.9.5.4 0 .8-.1 1.2-.1.2 0 .1.2.1.4-.1.2-.6.4-.9.4-1.5 0-3.1.5-4.6.2-.4-.1-.9 0-1.1.2-.6.5-1.2 1.1-1.7 1.6.4.2.8.5 1.2.8.8-.7 2.1-.9 3.3-.6.6.1 1.4.3 2 .5.8.2 1.3.4 2.1.7.5.2 1 .5 1.5.8.4.3.9.3 1.3 0 .6-.4 1.2-.7 1.9-1.1.5-.2.7.2.4.3-.4.3-.6.4-1.1.8-.2.2-.5.3-.7.5-.6.5-1 .5-1.6.4-.4-.1-.7-.4-1.1-.5-.4 0-.4.2-.2.4l1.2 1.2c.5.6 1.2.7 1.9.9.3.1.6.3.9.3.5.1.9.2 1.4.1 1.1-.2 2.1-.5 3-1.2.7-.6.7-1.2.8-1.9.1 0 .1-.1.1-.2M87 38.5c-.6.3-1.2 1-1.8.7-.6-.2-1.3-.6-1.9-.9-.2-.1-.2-.3.1-.2.2 0 .5.2.7.2.8.2 1.5.5 2.2-.2.3-.2 1.3.1.7.4"/><path class="st1" d="M99.2 69.2c-.2-.8-.5-1.7-.7-2.5-.1-.4 0-.6.3-.8-.2-.6-.6-1-1-1.5v.2c-.1.2-.3.2-.4.1-1.3-2.6-3.2-4.2-5.5-5.7.4-1.6-.3-2.5-1.7-3-.8-.1-1.1.6-1.2.7-.3.6-.1 1.4.2 1.9.4.7 1.1 1 1.8 1 .3 0 .6.2.9.4 1.3.8 2.4 1.7 3.4 2.8.5.6.8 1.1 1.2 1.7.1.2.3.6 0 .8-.3.2-.6-.1-.9-.5-.5-.6-1-1-1.4-1.5l-1.5-1.5c-.6-.5-1.7-1.2-2.3-1.5-1-.5-1.3-.6-2.2-1-.2-.1-.4-.3-.4-.4.1-.8-.4-1.4-.7-1.9-.1-.2-.4-.3-.6-.5-.5-.3-.3.3-.5.4-.1.1-.3.2-.5.2-1.8 0-3.4.4-5.1 1.2-.3.2-.6.5-.9.3-.3-.1-.4-.6-.6-.9-.4-.6-.5-1-.9-1.6-.5-.8-1.2-1.6-1.9-2.1-1.7-1.5-3.7-2.6-6.1-2.6-1.4 0-2.7.3-4 .7-.4.1-.7.3-1 .5-.1.1-.4.1-.5 0-.1-.1-.1-.3 0-.5V52c-.7.1-1.5-.2-2.1-.5 0 .2 0 .2-.1.5 0 .2-.4.4-.5.2-.2-.2-.3-.4-.6-.7-.6-.7-1.2-1.1-2-1.4-1.2-.6-2.4-.9-4-1H55l-.7.7c.8-.1 1.7 0 2.5.1.9.2 1.6.5 2.4 1 .5.4.9.8 1.2 1.2.3.5.2.6.1.7-.1.1-.4.3-.9.1-.8-.3-1-.4-1.7-.6-1.5-.5-3.1-.6-4.7-.3-1.5.2-2.9 1-4.1 1.9-1 .8-1.7 1.7-2.6 2.5-.2.2-.4.4-.6.4-.6 0-.9-.5-.5-1 .5-.7 1-1.4 1.6-2.1.5-.5.6-.7 1.2-1.1.2-.2.8-.6 1-.7-.2-.1-.4-.3-.6-.4-.7.6-1.5 1.1-2.1 1.7-.8.8-1.4 1.6-2.1 2.4-.4.5-.3.4-.9.5-.2.6-.8 2-.5 2.1.9.4 1.5.5 2.4 0 .3-.1.6-.2 1-.3.2 0 .3 0 .4-.2.6-1.3 1-1.6 2-2.6.8-.9 1.9-1.7 2.9-2.1.7-.3 1.9-.6 2.6-.6 1.4-.1 2.9-.2 4 1 .1.1.2.3.1.6 0 .2-.3.2-.5.2-.6 0-1.1-.1-1.7-.1-.9 0-1.9 0-2.8.2-1.4.3-2.8 1.1-3.9 2.2-.7.8-1.3 1.3-1.8 2.4-.2.5-.4 1.1-.6 1.6-.3.7-.7.8-1.3.3-1.3-1-2.9-1.5-4.5-1.5h-2.1c-1.2.1-1.7.2-2.8.5-1.1.3-2.6 1.2-3.7 2.3-.8.8-1.1 1.1-1.7 1.9-.5.7 0 1.9.8 1.9.8.1 1.1-.5 1.5-.9.3-.3.5-.5.7-.8.4-.4 1-.8 1.5-1.1.8-.5 1.4-.7 2.3-.9.8-.2 1.7-.3 2.5-.2 1 0 1.8.1 2.4.9.3.3.4.7.3 1-.1.2-.7 0-.9-.1-1.2-.5-2.5-.6-3.7-.5-.5.1-1 .2-1.5.5-.6.3-1.2.8-1.7 1.3-.6.7-1.3 1.7-1.1 1.8.1.1.4-.2.5-.3.6-.5 1.1-1.1 1.7-1.6 1.3-1.1 2.6-1.1 4.4-.7.7.2 1.5.6 2.2.9.6.2 1.1-.1 1.1-.6-.1-1.2.7-2.3 2-2.4.5 0 .9.1 1.4.3.5.1.9 0 1-.6.1-.5 0-.7 0-1 0-.3-.1-.5-.1-.8-.1-.9.5-1.7 1.2-2.5.5-.6 1.5-1.4 2.3-1.8 1.4-.8 2.9-1.1 4.5-.8l2.1.6c1 .3 1.7-.1 2-1.1 0-.1.1-.2.1-.2.4-.5.9-.5 1.4.1.6.7 1.7.8 2.3.1.4-.5.7-1.1 1.1-1.3.9-.5 2-1 3-1.2 1.4-.3 3.2-.2 4.6.4.9.4 1.3.5 2.3 1.3 1.6 1.3 2.9 2.8 3.4 4.8.2.8.2 1 .1 1.7 0 .4-.5.8-.8.6-.2-.1-.3-.2-.3-.5 0-1.4-.6-2.1-1.3-3.1-.4-.5-1-1.3-1.7-2-.9-.8-1.6-1.4-3.5-2-.8-.2-1.3-.2-2.2-.2-1.2 0-2.2.3-2.9 1.2-.4.5-.4 1.3 0 1.6.3.3.8.4 1.3.1.5-.2.5-.7.5-1.1-.1-.5.1-.7.6-.9 1.6-.5 3.1-.2 4.4.7 1 .7 2 1.5 2.7 2.5.5.7 1.1 1.3 1.3 2.3.1.3 0 .7-.1 1-.1.7.2 1.5 1.1 1.3.6-.1 1.2-.3 1.4-.8.1-.3.2-.6.4-1 .3.8.5 1.1 1.3 1.3 0 0 .1.2.1.3.2.6 1 1 1.8.7.8-.4 1.7-.4 2.6-.4 2.1-.1 3.9.6 5.5 1.9.9.7 1.6 1.6 2.2 2.5.7.9 1.1 2.1 1.2 3.3.1.6.1.9-.5 1.2-.5.2-.7.8-.6 1.3.1.4.4.9 1 .9.4 0 .8 0 1.3.1 1 .2 1.9-.3 2.1-1.3.1-.4.3-.5.7-.4.9.2 1.2-.1 1.4-.9-.2-.3-.3-.7-.5-1.2m-8.3-10.4c-.4.2-.8-.2-1.1-.5-.3-.3-.5-1-.3-1.2.3-.5.6-.6 1.1-.2 1 .6.8 1.6.3 1.9m-46.3 2.9c-.2.3-.4.3-.7.3-.4 0-.7-.1-1.1-.3-1.6-.7-3.2-.6-4.8-.3-1 .2-2 .5-2.8 1-.7.4-1.3.9-1.9 1.4-.4.4-.7.6-1 1-.1.1-.3.2-.5 0-.1-.1-.2-.2 0-.6.2-.4.3-.6.5-.9.7-.8 1.2-1.4 2.2-2.1.8-.5 1.2-.8 2.1-1.1.7-.2 2-.4 2.8-.5 1.3 0 2.7 0 4 .5.4.2.8.4 1.2.7.1.4.2.7 0 .9m36.3-1.9c-.2 0-.7.1-.8-.2-.2-.3.1-.6.3-.7.7-.4 1.4-.8 2.2-1 1.1-.4 2.3-.5 3.5-.4.5.1.8.4.8.8 0 .5-.4.6-.8.6h-.8c-.9 0-2 .1-2.9.3-.6.3-1 .5-1.5.6m15.5 12c-.3.5-1.2.4-1.2-.2 0-.5 0-.5-.1-1-.2-1.2-.3-2.5-.9-3.6-.6-1.1-1.2-1.9-2.4-3.1-2-2-4.1-2.6-6.8-2.8-1-.1-1.9 0-2.9 0-.3 0-.7-.2-.7-.6 0-.2 0-.4.3-.5.5-.3.9-.4 1.6-.5.5-.1 1.3-.1 1.8-.1 2.6 0 4.8 1 6.2 2 1.1.8 2.4 2.4 3.2 3.5 1 1.4 1.4 2.3 1.9 3.9.3 1 .4 2.2 0 3m2-1.5c-.1.2-.3.3-.5.3s-.5-.2-.5-.3c-.2-.7-.4-1.3-.6-2-.1-.5.2-.7.5-.8.5-.2.8.1.9.4.4.8.7 1.6.2 2.4"/><path class="st0" d="M101.6 44.2c-.5-.7-.9-1.4-1.4-2.1-.4-.5-.7-.9-1-1.4-.6-.9-.9-1.2-1.2-2.7-.2-.7-.1-1.5 0-2.2.1-.6.4-.9.8-.9s.6.2.8.5c.1.2.4.5.3 1.1-.1.5.8 1 .8 2 .3-1.8-.2-3-1.2-3.8h.6c1.1.4 1.1 1.9 1.1 2.9 0 .9-.1 2-.1 2.5.1.4.2 1.5 1.3 2.3-.6-1-.9-1.3-.8-2.8.1-1.4 0-1.8 0-2.4-.1-1-.3-1.4-.5-1.7-.1-.2-.4-.5-.4-.5s.5.2.7.8c.3.5.5 1 .5 1.8v1.7c-.1 1.2.2 1.7.7 2.4.4.6 1.3 1.2 1.6 1.3-1.3-1.6-1.7-2.3-1.7-3.5-.1-.8.1-1.6-.1-2.4-.2-1.6-.8-2.9-2.1-3.6-.2-.1-.6-.2-1.2-.3.3-.1 1.3-.3 2.4.6.5.4.7 1.2 1.1 1.6 1 1 1.2 1.4 1.6 2.2 0-.1-.7-2.5-1.9-3.7-.6-.7-1.7-1-1.8-1-1.8-.5-3.4.7-3.8 2.4-.2.7-.2 1.4-.2 2 0 .9.2 1.6.8 2.6.7 1.4 1.1 1.9 2 3.2.7.9 1.3 1.8 1.9 2.8.4.6.7 1 .8 2 .2 1.5-.6 1.8-1.6 1.6-1.5-.3-2.2-1.4-3-2.5-.8-1.2-1.4-2.5-2.2-3.8-.1-.2-.2-.3-.3-.5l-.6.6c-.9.9-1.7 1.4-3 1.8-.8.2-1.5.2-2.2.2.2.2.4.5.6.7.3.5.5.9.8 1.4.1.1.3.7 0 .7-.2 0-.4-.4-.4-.6-.2-.6-.4-.9-.9-1.1-.6-.2-1.4-.5-2-.7-1.2-.4-2.3-.4-3.5 0-.4.2-.8.6-.9.7-.8.9-.8 2.4.2 3.5.7.8 1.3 1.2 1.9 2 .3.5.6 1.3.7 2.1-.6.1-1.1.2-1.6.3-.4 0-.8 0-1.2-.1-.9-.3-1.7 0-2.3.6-.5.5-.9 1.2-1.4 1.9 1.4.3 1-.6 1.7-.6-.1.2-.2.5-.3.7.6.1 1-.1 1.3-.3.7-.5 1.4-.6 2.2-.8 1.2-.2 2.4-.2 3.5-.4.6-.1.6-.6.6-1-.1-.4-.4-1.2-.5-1.8 0-.3-.1-.7 0-.9.2-.4.8-.4 1.3-.2.3.2.6.3.9.4.4.1.7.1.8-.4.3-1.1.2-1.5.8-2.8.1-.2.3-1.1.4-1.5.1-.2.4-.2.3 0-.1.5-.1.9-.2 1.4-.1.5-.4.9-.5 1.3-.4 1.4-.4 2.2-.5 3.3-.1 1.1.3 2.2.9 3.1.7.9 1.7 1.7 2.9 2 .9.3 1.9.6 2.2 1.7.4 1.2 1 2.5.9 3.8 0 .3 0 .4-.1.7.4.5.8.9 1 1.5 0 0 .1 0 .1-.1.3-.1.5-.4.6-.6.1-.4.2-.8.1-1.2-.1-1-.3-2-.5-3-.1-.6 0-1.2-.1-1.7-.1-.7-.1-1.4-.9-1.7-.3-.1-.5-.3-.8-.4-.9-.6-1.3-2.6-.5-3.5.7-.8.9-1.9 1.2-2.8.2-.6.4-.8.9-.4.7.5 2 .7 2.9.5.7-.2 1.2-.5 1.6-1.3.4-.9.1-2.3-.5-3.3-.4-1.1-.7-1.4-1.2-2.2m-14 10.5c-.2.5-1.2.5-1.8.5.4-.2 1.1-.4 1.3-.6.2-.2.4-.4.4-.6.1.2.2.5.1.7m11 3.8c.2.1.2.3.3.6.1.7.1.9.1 1.6 0 .4-.2.2-.3.7-.1-.9-.2-2-.3-2.8 0-.2 0-.1.2-.1"/><path class="st0" d="M102.8 36.4c.1.4.2.8.2 1.5 0 .5-.1 1.3.1 1.7.3 1 1.1 2 1.1 2s-.7-1.4-.4-2.6c.2-.7 0-1-.2-1.3-.1-.1-.3-.6-.8-1.3"/></g><g><path class="st0" d="M86.8 44.7c-.5 0-.9-.2-.9-.6 0-.3.4-.6.9-.6s.9.2.9.6c0 .4-.4.6-.9.6zm0-.8c-.4 0-.6.2-.6.3 0 .1.2.3.6.3.4 0 .6-.2.6-.3 0-.2-.2-.3-.6-.3zM87.2 44.1h1.5"/><path class="st0" d="M88.7 44.3h-1.5c-.1 0-.1-.1-.1-.1 0-.1.1-.1.1-.1h1.5c.1 0 .1.1.1.1s0 .1-.1.1z"/><path class="st0" d="M89.2 44.7c-.5 0-.9-.2-.9-.6 0-.3.4-.6.9-.6s.9.2.9.6c0 .4-.4.6-.9.6zm0-.8c-.4 0-.6.2-.6.3 0 .1.2.3.6.3.4 0 .6-.2.6-.3 0-.2-.3-.3-.6-.3zM84.8 44.3l1.5-.2M84.8 44.4c-.1 0-.1-.1-.1-.1 0-.1.1-.2.1-.2l1.5-.1c.1 0 .2.1.2.1 0 .1-.1.2-.1.2l-1.6.1z"/><path class="st0" d="M84.1 45c-.3 0-.5-.1-.5-.3-.1-.2 0-.3.1-.5.1-.1.3-.3.5-.4.2-.1.3-.1.5-.1.3 0 .5.1.6.3.1.2 0 .3-.1.5-.1.1-.3.3-.5.4-.2.1-.4.1-.6.1zm.6-1c-.1 0-.2 0-.4.1s-.3.2-.4.3c-.1.1-.1.2-.1.2 0 .1.1.1.3.1.1 0 .2 0 .4-.1s.3-.2.4-.3c.1-.1.1-.2.1-.2-.1 0-.2-.1-.3-.1zM91.2 44.4c-.3 0-.6-.1-.6-.3-.1-.2 0-.3.2-.5.1-.1.3-.2.5-.3.1 0 .3-.1.4-.1.3 0 .6.1.6.3.1.2 0 .3-.2.5-.1.1-.3.2-.5.3-.2 0-.3.1-.4.1zm.4-1c-.1 0-.2 0-.3.1-.2.1-.3.1-.4.2-.1.1-.1.2-.1.2 0 .1.2.1.3.1.1 0 .2 0 .3-.1.2-.1.3-.1.4-.2.1-.1.1-.2.1-.2s-.1-.1-.3-.1zM89.6 44.1l1.4-.2"/><path class="st0" d="M89.6 44.3c-.1 0-.1 0-.1-.1s0-.2.1-.2l1.4-.3c.1 0 .2 0 .2.1s0 .2-.1.2l-1.5.3zM83.1 45.7l.9-1.1M83.1 45.8s-.1 0 0 0c-.2-.1-.2-.2-.1-.2l.9-1.1c.1-.1.1-.1.2 0s.1.1 0 .2l-.9 1.1h-.1z"/><path class="st0" d="M83.1 47c-.3 0-.6-.4-.6-.8 0-.5.2-.9.5-.9s.6.3.6.8c0 .2 0 .4-.1.6 0 .2-.1.3-.4.3.1 0 .1 0 0 0zm0-1.5c-.1 0-.3.3-.2.6 0 .4.2.6.3.6.1 0 .1-.1.2-.2s.1-.3.1-.5c-.2-.3-.3-.5-.4-.5zM93.1 43.4c-.1 0-.3 0-.3-.1-.1-.1-.1-.3-.1-.5.1-.2.2-.4.4-.5.2-.2.5-.3.7-.3.1 0 .3 0 .4.1.1.1.1.3.1.5-.1.2-.2.4-.4.5-.3.2-.6.3-.8.3zm.6-1.2c-.1 0-.3.1-.5.2-.1.1-.2.2-.3.4v.2h.1c.1 0 .3-.1.5-.2.1-.1.2-.3.3-.4v-.2h-.1zM91.8 43.6l1.3-.7"/><path class="st0" d="M91.8 43.8c-.1 0-.1 0-.1-.1s0-.2.1-.2l1.3-.7c.1 0 .2 0 .2.1s0 .2-.1.2l-1.4.7zM93.7 42.4l.5-1.4M93.7 42.6s-.1-.1 0 0c-.1 0-.2-.1-.1-.2l.5-1.4c0-.1.1-.1.2-.1s.1.1.1.2l-.5 1.4c-.1 0-.2.1-.2.1z"/><path class="st0" d="M94.2 41.5c-.2 0-.3-.1-.4-.3-.1-.2-.1-.4-.1-.6 0-.5.3-.9.7-.8.2 0 .3.1.4.3.1.2.1.4.1.6-.1.5-.4.8-.7.8zm.1-1.5c-.1 0-.3.2-.3.6 0 .2 0 .3.1.5 0 .1.1.2.2.2s.3-.2.3-.6c0-.2 0-.3-.1-.5-.1-.1-.1-.2-.2-.2zM94.3 40.2l-.6-1.3"/><path class="st0" d="M94.3 40.4c-.1 0-.1 0-.1-.1l-.7-1.3c0-.1 0-.2.1-.2s.2 0 .2.1l.6 1.3c.1.1 0 .1-.1.2.1 0 0 0 0 0z"/><path class="st0" d="M93.8 39.5c-.2 0-.5-.2-.7-.4-.3-.4-.4-.8-.2-1 .1-.1.2-.1.3-.1.2 0 .5.2.7.4.3.4.4.8.2 1-.1 0-.2.1-.3.1zm-.6-1.3c-.1 0-.1 0 0 0-.2.1-.1.4.1.7.2.3.5.3.6.3.1-.1.1-.4-.2-.6-.2-.3-.4-.4-.5-.4zM93.2 38.4l-1.4-.5"/><path class="st0" d="M93.2 38.6l-1.4-.6c-.1 0-.1-.1-.1-.2s.1-.1.2-.1l1.4.5c.1 0 .1.1.1.2-.1.1-.1.2-.2.2zM89.8 55.6c-.3 0-.6-.2-.7-.6-.2-.5-.1-.9.1-1h.2c.3 0 .6.2.7.6.1.2.1.4.1.6 0 .2-.1.4-.3.4h-.1zm-.4-1.4c-.1 0-.1 0 0 0-.1.1-.2.3 0 .7.1.3.4.5.5.4 0 0 .1-.1.1-.2s0-.3-.1-.5c-.2-.3-.4-.4-.5-.4z"/><g><path class="st0" d="M88.4 53.8c-.2 0-.4-.1-.6-.2-.4-.3-.6-.7-.4-1 .1-.1.2-.2.4-.2s.4.1.6.2c.2.1.3.3.4.4.1.2.1.4 0 .5 0 .2-.2.3-.4.3zm-.6-1.1c-.1 0-.1 0-.2.1s0 .4.3.6c.2.1.3.2.5.2.1 0 .2 0 .2-.1v-.2l-.3-.3c-.2-.2-.4-.3-.5-.3z"/></g><g><path class="st0" d="M89.4 54.4l-1-1.1M89.4 54.5h-.1l-1-1.1c-.1-.1-.1-.2 0-.2.1-.1.2-.1.2 0l1 1.1c.1 0 0 .1-.1.2.1 0 0 0 0 0z"/></g><g><path class="st0" d="M90.2 56.5l-.5-1.4M90.2 56.6c-.1 0-.1 0-.1-.1l-.4-1.4c0-.1 0-.2.1-.2s.2 0 .2.1l.4 1.4c-.1.1-.1.2-.2.2z"/></g><g><path class="st0" d="M83.4 27.5h-.2c-.5-.1-.8-.4-.8-.7 0-.3.3-.4.7-.4h.2c.2 0 .4.1.6.2.2.1.2.3.2.5s-.3.4-.7.4zm-.3-.9c-.3 0-.4.1-.4.2s.2.3.5.4h.2c.3 0 .4-.1.4-.2s0-.1-.1-.2-.3-.2-.4-.2h-.2z"/></g><g><path class="st0" d="M81.8 26.9l.7-.1M81.8 27c-.1 0-.1-.1-.1-.1 0-.1.1-.2.1-.2l.7-.1c.1 0 .2.1.2.1 0 .1-.1.2-.1.2l-.8.1z"/></g><g><path class="st0" d="M80.8 27.7c-.3 0-.5-.1-.5-.3-.1-.3.1-.7.6-.9.2-.1.4-.1.5-.1.3 0 .5.1.5.3.1.3-.1.7-.6.9-.2.1-.4.1-.5.1zm.6-1c-.1 0-.3 0-.4.1-.3.1-.5.4-.4.5 0 .1.1.1.3.1.1 0 .3 0 .4-.1.3-.1.5-.4.4-.5-.1 0-.2-.1-.3-.1z"/></g><g><path class="st0" d="M84 27.1l.7.4M84.7 27.6l-.8-.4c-.1 0-.1-.1-.1-.2h.2l.7.3c.1 0 .1.1.1.2s0 .1-.1.1z"/></g><g><path class="st0" d="M85.6 29.2c-.7 0-1.2-.5-1.2-1.2s.5-1.2 1.2-1.2 1.2.5 1.2 1.2c0 .6-.5 1.2-1.2 1.2zm0-2.1c-.5 0-.8.4-.8.8 0 .5.4.8.8.8.5 0 .8-.4.8-.8.1-.4-.3-.8-.8-.8z"/></g></g><g><path class="st0" d="M93.1 34.3c.4-.4 1.5-1.2 2.2-1.3l-.5-.8c0 .4-.2.8-.4.9-.1-.3-.1-.6 0-.9-.2.2-.6.4-.9.5.3.1.5.2.7.4-.3.2-.9.4-1.4-.2-.3-.3-.3-.8 0-1.1.1-.1.3-.2.5 0 .2.1 0 .4-.2.5.3.1 1-.4.7-.7-.2-.3-.8-.2-1.1 0 .2-.4.3-1 0-1.2-.4-.3-.8.5-.7.7.2-.2.5-.3.6-.2.1.1.1.3-.1.5-.3.3-.9.2-1.2 0-.4-.3-.5-.8-.1-1.4.2.2.5.6.5.9.2-.4.4-.6.7-.9-.4.1-.8-.1-1-.2.2-.2.6-.3 1-.3l-1.4-.8c.2.4.1.7-.1 1-.2-.2-.5-.5-.5-.9-.2.4-.4.6-.7.9.3-.1.8.1 1 .2-.5.5-1.1.5-1.4.2-.4-.2-.7-.7-.5-1.1.1-.2.4-.2.5-.1.1.1.2.3 0 .5.3-.2.7-.6.4-.9-.3-.2-.7 0-1 .3.1-.3 0-.9-.4-1-.4-.1-.6.6-.5.9 0-.1.2-.5.4-.3.2.1.1.4.1.5-.2.4-.7.4-1.1.2-.6-.3-.7-1-.4-1.3.3.1.5.3.6.5 0-.3.2-.7.3-1-.2.2-.6.2-.9.2.1-.2.4-.5.8-.7l-.9-.2c0 .7-.5 2-.7 2.5 3.7 2 4.1 2.3 7.1 5.2"/><path class="st0" d="M89.8 27.1c-.3.2-.6.3-.7.5-.1.2-.3 1-.4 1.3.3-.2.8-.7 1-.9.1-.2 0-.7.1-.9M94 30.4c-.1.4-.2.6-.4.8-.2.2-.9.5-1.1.6.1-.3.5-1 .7-1.1.2-.2.7-.2.8-.3"/></g><g><path class="st0" d="M62.5 4.7V3.2c-.8.2-1.3.8-1.5 1.5h1.5zM63.3 4.7h1.5c-.2-.7-.8-1.3-1.5-1.5v1.5zM61.1 5.5c.2.8.9 1.5 1.8 1.5s1.6-.6 1.8-1.5h-3.6zM63.1 1.4c.1-.4.3-.9.7-1.4h-1.9c.4.5.6.9.7 1.4.1-.1.2-.1.3-.1s.1 0 .2.1"/><path class="st0" d="M62.6 2.1c-.1.5-.2 1-.6 1.3.7-.3 1.1-.3 1.9 0-.4-.3-.6-.9-.7-1.3-.1 0-.2.1-.3.1-.1 0-.2 0-.3-.1M62.4 1.5c-.5-.1-1-.4-1.3-.8v2c.4-.4.9-.6 1.3-.7 0-.1-.1-.1-.1-.2.1-.1.1-.2.1-.3M63.3 1.5c0 .1.1.1.1.2s0 .2-.1.2c.5.1 1 .4 1.3.8v-2c-.4.5-.9.7-1.3.8"/><path class="st0" d="M62.8 2.3c-.3 0-.5-.2-.5-.5s.2-.5.5-.5.5.2.5.5c.1.2-.2.5-.5.5m0-1c-.2 0-.4.2-.4.4s.2.4.4.4.4-.2.4-.4-.1-.4-.4-.4M61.7 12.6H64V6.9h-2.3v5.7zm1.1-.5c-.3 0-.5-.2-.5-.5s.2-.5.5-.5.5.2.5.5c.1.3-.2.5-.5.5m.1-1.2c-.3 0-.5-.2-.5-.5s.2-.5.5-.5.5.2.5.5c0 .2-.2.5-.5.5m0-1.3c-.3 0-.5-.2-.5-.5s.2-.5.5-.5.5.2.5.5-.2.5-.5.5m0-1.3c-.3 0-.5-.2-.5-.5s.2-.5.5-.5.5.2.5.5-.2.5-.5.5M51.8 9.5c0 .3-.2.5-.5.5s-.5-.2-.5-.5.2-.5.5-.5c.2 0 .5.2.5.5M51.8 11.6c0 .3-.2.5-.5.5s-.5-.2-.5-.5.2-.5.5-.5c.2-.1.5.2.5.5M52.4 13.3c0 .3-.2.5-.5.5s-.5-.2-.5-.5.2-.5.5-.5c.2 0 .5.2.5.5M52.6 7.8c0 .3-.2.5-.5.5s-.5-.2-.5-.5.2-.5.5-.5.5.2.5.5M54.1 6.5c0 .3-.2.5-.5.5-.4 0-.6-.2-.6-.5s.2-.5.5-.5.6.2.6.5M55.9 5.8c0 .3-.2.5-.5.5s-.5-.2-.5-.5.2-.5.5-.5.5.2.5.5M57.8 5.8c0 .3-.2.5-.5.5s-.5-.2-.5-.5.2-.5.5-.5.5.2.5.5M59.6 6.5c0 .3-.2.5-.5.5s-.5-.2-.5-.5.2-.5.5-.5.5.2.5.5M61.5 7.1c0 .3-.2.5-.5.5s-.5-.2-.5-.5.2-.5.5-.5c.2 0 .5.2.5.5"/><path class="st0" d="M53.2 14.1c0-.1-.4-2.1.4-2.9.5-.5.9-.7 1.6-.7.2 0 .4 0 .6.1.2-.4.8-1.2 1.6-1.2h.1c.8 0 1.5.3 2.4.9.4.3.9.4 1.5.4h.9v.4h-.9c-.7 0-1.2-.2-1.7-.5-.9-.6-1.5-.8-2.2-.8h-.1c-.5 0-1 .6-1.3 1.1l-.1.1h-.3c-.2 0-.4-.1-.6-.1-.5 0-.9.2-1.3.5-.7.7-.3 2.5-.3 2.5v.1l-.3.1z"/><path class="st0" d="M53.3 14.2c-.1-.1-1.2-1.6-1.4-3.1-.2-1.5.5-2.7 1.1-3.3.4-.3 1.7-1.4 3.2-1.3 1.1.1 1.9.5 2.6.8.2.1.3.2.5.2.7.3 1.7.5 2.5.5H62.1v.4h-.4c-.8 0-1.9-.2-2.6-.5-.2-.1-.3-.2-.5-.2-.6-.4-1.3-.7-2.4-.8-1.4-.1-2.6.9-2.9 1.2-.1.1-1.3 1.2-1 3 .2 1.4 1.3 2.9 1.3 2.9l-.3.2z"/><path class="st0" d="M52.103 12.85l.533-.277.184.355-.533.277zM51.56 11.27l.585-.135.09.39-.586.133zM51.553 9.8l.094-.388.583.14-.094.39zM52.153 8.24l.24-.32.48.358-.24.32zM53.593 6.937l.344-.205.307.516-.344.205zM55.257 6.242l.394-.07.106.59-.394.07zM56.874 6.718l.14-.583.39.094-.14.582zM58.424 7.317l.253-.544.362.17-.254.543zM60.503 8.094l.1-.592.395.067-.1.59zM74.1 9.5c0 .3.2.5.5.5s.5-.2.5-.5-.2-.5-.5-.5c-.3-.1-.5.2-.5.5M74.1 11.5c0 .3.2.5.5.5s.5-.2.5-.5-.2-.5-.5-.5-.5.2-.5.5M73.5 13.3c0 .3.2.5.5.5s.5-.2.5-.5-.2-.5-.5-.5-.5.2-.5.5M73.2 7.8c0 .3.2.5.5.5s.5-.2.5-.5-.2-.5-.5-.5-.5.2-.5.5M71.8 6.4c0 .3.2.6.5.6s.5-.2.5-.5-.2-.5-.5-.5c-.3-.1-.5.2-.5.4M69.9 5.8c0 .3.2.5.5.5s.6-.2.6-.5-.2-.5-.5-.5-.6.2-.6.5M68 5.8c0 .3.2.5.5.5s.5-.2.5-.5-.2-.5-.5-.5c-.3-.1-.5.2-.5.5M66.2 6.4c0 .3.2.5.5.5s.5-.2.5-.5-.2-.5-.5-.5-.5.3-.5.5M64.4 7.1c0 .3.2.5.5.5s.5-.2.5-.5-.2-.5-.5-.5-.5.2-.5.5M72.6 14.1l-.4-.1v-.1s.4-1.8-.3-2.5c-.4-.4-.8-.5-1.3-.5-.2 0-.4 0-.6.1h-.3l-.1-.1c-.3-.5-.7-1.1-1.3-1.1h-.1c-.7 0-1.3.2-2.2.8-.5.3-1.1.5-1.7.5h-.9v-.4h.9c.6 0 1-.1 1.5-.4.9-.6 1.7-.9 2.4-.9.8 0 1.4.8 1.6 1.2.2 0 .4-.1.6-.1.6 0 1.1.2 1.6.7 1.1.8.7 2.7.6 2.9z"/><path class="st0" d="M72.5 14.2l-.3-.2s1.1-1.5 1.3-2.9c.3-1.7-.9-2.8-1-2.9-.3-.3-1.5-1.3-2.9-1.2-1 .1-1.8.4-2.4.8-.2.1-.3.2-.5.2-.7.3-1.8.5-2.6.5h-.4v-.4h.4c.8 0 1.8-.2 2.5-.5.1-.1.3-.1.5-.2.7-.3 1.5-.7 2.6-.8 1.5-.1 2.9 1 3.2 1.3.7.6 1.4 1.9 1.1 3.3-.3 1.4-1.4 2.9-1.5 3z"/><path class="st0" d="M73.012 12.943l.184-.356.533.276-.185.355zM73.66 11.555l.09-.39.585.133-.09.39zM73.652 9.465l.583-.14.094.388-.584.14zM72.9 8.12l.48-.36.24.32-.48.36zM71.636 7.126l.307-.516.344.205-.307.515zM70.09 6.615l.104-.59.394.07-.104.59zM68.443 6.25l.39-.093.138.584-.388.094zM66.69 6.938l.363-.168.253.544-.363.17zM64.757 7.544l.394-.067.102.592-.394.066zM54.7 19.1c.3 0 .5.1.6.3.1.3-.2.6-.6.7h-.3c-.3 0-.5-.1-.5-.3-.1-.2.1-.5.3-.6.1 0 .2-.1.3-.1h.2m0-.1c-.1 0-.2 0-.4.1-.1 0-.2.1-.3.1-.3.2-.5.5-.4.8.1.2.3.4.6.4h.1c.1 0 .2 0 .4-.1s.4-.2.5-.4c.1-.2.2-.4.1-.5 0-.3-.3-.4-.6-.4M70.9 19.1h.3c.1 0 .2.1.3.2.2.2.3.4.3.6-.1.2-.2.3-.4.3H71c-.4-.1-.7-.5-.6-.7 0-.3.2-.4.5-.4m0-.1c-.3 0-.6.2-.7.4-.1.2 0 .4.1.5.1.2.3.3.5.4.1 0 .2.1.4.1h.2c.3 0 .5-.2.5-.4.1-.2 0-.5-.3-.7-.1-.1-.2-.1-.4-.2-.1-.1-.2-.1-.3-.1M57.5 11.5c-.3.7-.5 1.1-.5 1.7.1.5.7 2 .9 2.5.2-.6.5-2.2.4-2.7 0-.6-.7-1.2-.8-1.5M68.3 11.5c.2.7.5 1.2.4 1.7-.1.5-.8 1.9-1.1 2.4-.1-.7-.3-2.2-.2-2.7.1-.5.8-1.1.9-1.4"/><path class="st0" d="M62.8 23.7c-4.5 0-9.3-.8-9.3-2.3 0-1.5 4.8-2.3 9.3-2.3s9.3.8 9.3 2.3c0 1.5-4.8 2.3-9.3 2.3zm0-4.2c-5.3 0-8.9 1-8.9 1.9 0 .9 3.7 1.9 8.9 1.9 5.3 0 8.9-1 8.9-1.9 0-.9-3.6-1.9-8.9-1.9zM53.9 15.9c.6-.2 1-.1 1.6.2-.3-.5-.6-1.4-.7-1.9-.1.6-.6 1-1.1 1.3 0 .1.1.3.2.4zM53.5 15.5c-.1-.5 0-1.3.5-2l-1.8.8c.3.3.5.8.7 1.2.1 0 .2-.1.3-.1.1 0 .2 0 .3.1z"/><path class="st0" d="M53.8 16.3c.1-.1.1-.2.1-.3v-.1h-.1v.4zM53.6 15.5s-.1 0 0 0c-.1 0-.1 0 0 0-.1 0 0 0 0 0z"/><path class="st0" d="M53.2 16.8c-.4 0-.8-.3-.8-.8 0-.4.3-.8.8-.8s.8.4.8.8-.4.8-.8.8zm0-1.3c-.3 0-.5.2-.5.5s.2.5.5.5.5-.2.5-.5-.2-.5-.5-.5zM62.8 15.3c-.4 0-.8-.4-.8-.8s.4-.8.8-.8.8.4.8.8c0 .5-.3.8-.8.8zm0-1.3c-.3 0-.6.3-.6.6s.3.6.6.6.6-.2.6-.6-.3-.6-.6-.6zM72.7 15.6c.2-.5.5-1 .8-1.4l-1.8-.8c.5.6.5 1.4.5 1.9.2 0 .4.1.5.3zM71.9 15.4c-.4-.3-.8-.7-.9-1.2-.1.5-.4 1.4-.7 1.9.4-.2.8-.3 1.2-.2.1-.3.2-.5.4-.5z"/><path class="st0" d="M63.4 14.8c.6.1 1.3.5 1.6.9-.1-.9-.1-1.4 0-2.3-.4.5-1.1.7-1.7.8.1.1.1.2.1.3.1.1.1.2 0 .3z"/><path class="st0" d="M71.9 18.3h-.1c.1-.6.3-1.2.5-1.7h-.1c-.2 0-.4-.1-.5-.2-.4.6-1.1 1.2-2.2 1-.9-.2-1.5-.9-1.3-1.8.1-.3.3-.6.7-.6.4 0 .5.7.3 1 .6-.3 1.2-1.8.3-2-.7-.2-1.5.7-1.8 1.4-.1-.8-.7-1.9-1.4-1.8-.9.1-.7 1.7-.3 2 .1-.5.4-1 .7-1 .2 0 .6.4.5.9-.1.8-1.1 1.4-2 1.4-.9 0-1.7-.6-1.9-1.8-.1.1-.2.1-.4.1-.1 0-.3 0-.4-.1-.3 1.2-1.2 1.7-1.9 1.8-.9.1-2.1-.2-2.2-1.2-.1-.5.5-.8.8-.8.3 0 .6.3.7.8.2-.7.4-1.9-.5-2-.7 0-1.2.8-1.3 1.6-.2-.7-1.2-1.5-1.9-1.2-.8.3-.2 1.7.4 2-.1-.3-.2-1 .3-1.1.4 0 .7.5.7.7.1.9-.6 1.5-1.5 1.7-1.3.2-2-.5-2.2-1.2-.1.2-.2.3-.4.3.2.5.3 1.1.5 1.6h-.2c-.1 0-.2.1-.3.2-.1.1-.1.2 0 .3 0 .2.2.3.4.3H54.2v.2c.1 0 .2-.1.3-.1.4-.1.8 0 .9.3.1.3-.2.6-.6.7-.1 0-.3.1-.4 0 0 .2 0 .3-.1.6 2.4-1.2 6-1.3 8.6-1.3 0 0 5-.3 8.5 1.3V20h-.5c-.4-.1-.7-.5-.6-.7.1-.3.5-.4.9-.3.1 0 .2.1.3.2V19h.2c.2 0 .3-.1.4-.3.2-.1.1-.3-.2-.4zm-13.5 1c-.5.1-1-.1-1.1-.4 0-.3.3-.5.8-.6h.3c.5 0 .9.2.9.4 0 .3-.4.6-.9.6zm4.5-.2c-.5 0-1-.2-1-.5s.4-.5 1-.5c.5 0 1 .2 1 .5s-.5.5-1 .5zm5.5-.2c0 .3-.5.5-1.1.4-.5-.1-1-.4-.9-.7 0-.3.4-.4.9-.4h.3c.5.2.8.5.8.7zm3.6-.1c0 .1-.1.1-.2.1h-.1c-2.8-.8-5.7-1.2-8.7-1.2-2.9 0-6 .4-9 1.1h-.2c-.1 0-.2 0-.2-.1v-.1l.1-.1h.2c3.1-.8 6.1-1.2 9.1-1.2s5.9.4 8.8 1.2h.1c.1.1.1.2.1.3z"/><path class="st0" d="M63.3 14c.2-.6.5-1.1 1.2-1.5h-3.1c.6.3.9.9 1 1.4.1-.1.3-.1.4-.1.2 0 .4.1.5.2zM62.2 14.2c-.5-.1-1.2-.3-1.6-.8.1.9.1 1.4 0 2.3.3-.4 1-.7 1.6-.9 0-.1-.1-.2-.1-.3.1-.1.1-.2.1-.3zM72.1 16.7c-.4 0-.8-.3-.8-.8 0-.4.3-.8.8-.8.4 0 .8.3.8.8s-.3.8-.8.8zm0-1.2c-.3 0-.5.2-.5.5s.2.5.5.5.5-.2.5-.5c.1-.3-.2-.5-.5-.5zM56 22.2c-.1 0-.2-.1-.2-.1 0-.1 0-.2.1-.2 1.7-.5 4.3-.7 6.9-.7 2.6 0 5.1.3 6.9.7.1 0 .2.1.1.2 0 .1-.1.2-.2.1-1.7-.4-4.2-.7-6.8-.7-2.6 0-5 .3-6.8.7zM58.8 20.7c-.2-.2 0-.4.4-.4.4.1.3.3.8.4 0 .1-1 .2-1.2 0M62.6 20.5c-.2-.2 0-.4.4-.4.4.1.3.3.8.4 0 .1-1 .2-1.2 0M66.4 20.7c-.2-.2 0-.4.4-.4.4.1.3.3.8.4-.1.2-1 .2-1.2 0M55.2 21.3c-.2-.2 0-.4.4-.4.4.1.3.3.8.4 0 .2-1 .2-1.2 0M69.6 21.3c-.2-.2 0-.4.4-.4.4.1.3.3.8.4 0 .2-1 .2-1.2 0"/></g><g><path class="st0" d="M33.6 14l-.1-.5c-.2.1-.4.3-.4.6l.5-.1zM33.8 14l.5-.1c-.1-.2-.3-.4-.6-.4l.1.5zM33.1 14.4c.1.3.4.4.7.4.3 0 .5-.3.5-.6l-1.2.2zM33.6 12.9c0-.2.1-.3.2-.5l-.6.1c.2.1.2.3.3.4h.1c-.1 0 0 0 0 0"/><path class="st0" d="M33.5 13.2c0 .2 0 .3-.1.5.2-.1.4-.2.6-.1-.1-.1-.3-.3-.3-.4h-.2M33.4 13c-.2 0-.3-.1-.5-.2l.1.7c.1-.1.2-.3.4-.3V13M33.7 12.9c0 .1 0 .1 0 0v.1c.2 0 .3.1.5.2l-.2-.6c0 .2-.2.3-.3.3M33.6 13.2c-.1 0-.2-.1-.2-.1 0-.1.1-.2.1-.2.1 0 .2.1.2.1 0 .1 0 .2-.1.2m-.1-.3c-.1 0-.1.1-.1.2s.1.1.2.1.1-.1.1-.2-.1-.1-.2-.1M33.4 14.8l.3 1.9.8-.1-.3-1.9-.8.1zm.7 1.7c-.1 0-.2-.1-.2-.2s.1-.2.2-.2.2.1.2.2c-.1.1-.1.2-.2.2m-.1-.4c-.1 0-.2-.1-.2-.2s.1-.2.2-.2.2.1.2.2l-.2.2m0-.5c-.1 0-.2-.1-.2-.2s.1-.2.2-.2.2.1.2.2c-.1.1-.1.2-.2.2m-.1-.4c-.1 0-.2-.1-.2-.2s.1-.2.2-.2.2.1.2.2-.1.2-.2.2M30.2 16.2c0 .1-.1.2-.2.2s-.2-.1-.2-.2.1-.2.2-.2.2.1.2.2M30.4 16.9c0 .1-.1.2-.2.2s-.2-.1-.2-.2.1-.2.2-.2l.2.2M30.7 17.4c0 .1-.1.2-.2.2s-.2-.1-.2-.2.1-.2.2-.2c0 .1.1.1.2.2M30.4 15.6c0 .1-.1.2-.2.2s-.2-.1-.2-.2.1-.2.2-.2.2.1.2.2M30.9 15.1c0 .1-.1.2-.2.2s-.2-.1-.2-.2.1-.2.2-.2.1.1.2.2M31.4 14.7c0 .1-.1.2-.2.2s-.2-.1-.2-.2.1-.2.2-.2c.1.1.2.1.2.2M32.1 14.6c0 .1-.1.2-.2.2s-.2-.1-.2-.2.1-.2.2-.2c.1.1.2.1.2.2M32.7 14.8c0 .1-.1.2-.2.2s-.2-.1-.2-.2.1-.2.2-.2.2.1.2.2M33.4 14.9c0 .1-.1.2-.2.2s-.2-.1-.2-.2.1-.2.2-.2l.2.2"/><path class="st0" d="M31 17.6s-.2-.6 0-1c.2-.3.5-.3.7-.3 0-.1.2-.4.4-.5.3 0 .5 0 .9.2.3.1.5.1.7 0h.1v.1h-.1c-.2 0-.4.1-.7 0-.3-.1-.6-.2-.8-.2-.2 0-.3.3-.4.4h-.1c-.2 0-.4 0-.6.3-.2.4 0 1-.1 1z"/><path class="st0" d="M31 17.7s-.5-.5-.6-.9c-.2-.5 0-.9.2-1.1.1-.1.5-.6 1-.6.4 0 .7.1.9.1.1 0 .1 0 .2.1.3.1.7.1.9 0v.1c-.3.1-.7.1-1 0-.1 0-.1 0-.2-.1-.2-.1-.5-.2-.9-.1-.5 0-.8.4-.9.6 0 0-.4.5-.2 1.1.2.2.7.7.6.8z"/><path class="st0" d="M30.546 17.262l.16-.12.12.162-.16.12zM30.262 16.742l.186-.074.075.185-.186.075zM30.24 16.35l.015-.2.2.017-.017.2zM30.315 15.713l.093-.177.177.093-.093.176zM30.8 15.4l-.1-.2h.1l.1.1M31.3 15.1l-.1-.2h.2v.2M31.762 14.998l.016-.2.2.017-.017.2zM32.404 15.1l.055-.193.19.054-.054.194zM33.1 15.3v-.2h.1v.2M37.7 15c0 .1.1.2.2.2s.2-.1.2-.2-.1-.2-.2-.2c-.2 0-.2.1-.2.2M37.8 15.7c0 .1.1.2.2.2s.2-.1.2-.2-.1-.2-.2-.2c-.2 0-.2.1-.2.2M37.7 16.3c0 .1.1.2.2.2s.2-.1.2-.2-.1-.2-.2-.2c-.2 0-.2.1-.2.2M37.3 14.5c0 .1.1.2.2.2s.2-.1.2-.2-.1-.2-.2-.2-.2.1-.2.2M36.8 14.1c0 .1.1.2.2.2s.2-.1.2-.2-.1-.2-.2-.2c-.2 0-.3.1-.2.2M36.1 14c0 .1.1.2.2.2s.2-.1.2-.2-.1-.2-.2-.2-.2.1-.2.2M35.5 14.1c0 .1.1.2.2.2s.2-.1.2-.2-.1-.2-.2-.2c-.2 0-.3.1-.2.2M34.9 14.4c0 .1.1.2.2.2s.2-.1.2-.2-.1-.2-.2-.2-.2.1-.2.2M34.3 14.7c0 .1.1.2.2.2s.2-.1.2-.2-.1-.2-.2-.2-.2.1-.2.2M37.4 16.6c-.1 0-.1-.6-.3-.8-.3-.2-.5-.1-.7-.1h-.1c-.1-.2-.3-.3-.5-.3s-.4.1-.7.4c-.2.2-.5.2-.7.2h-.1v-.1h.1c.2 0 .4 0 .6-.2.3-.3.5-.4.8-.4.3 0 .5.2.6.3.2-.1.5-.1.8.1.3.2.2.9.2.9"/><path class="st0" d="M37.4 16.6c-.1-.1.2-.6.2-1.1 0-.6-.5-.9-.5-.9-.1-.1-.6-.4-1-.3-.3.1-.6.2-.8.4-.1 0-.1.1-.2.1-.2.2-.7.3-.9.3V15c.2 0 .7-.2.9-.3l.1-.1c.2-.1.4-.3.8-.4.5-.1 1 .2 1.1.3.3.2.5.5.5 1 .1.6-.2 1.1-.2 1.1"/><path class="st0" d="M37.535 16.19l.032-.094.19.063-.032.094zM37.6 15.67l.013-.2.2.014-.014.2zM37.58 15.023l.184-.076.04.092-.186.076zM37.16 14.636l.14-.143.144.14-.14.143zM36.696 14.397l.074-.186.186.075-.074.186zM36.3 14.3l.1-.2h-.2v.2M35.666 14.217l.092-.038.076.184-.092.038zM35.3 14.6l-.1-.1-.1.1.1.1M34.464 14.834l.19-.064.063.19-.19.063zM31.7 19.2c.1 0 .2 0 .2.1s0 .2-.2.3h-.1c-.1 0-.2 0-.2-.1s0-.2.1-.2c0 0 .1 0 .1-.1h.1m0 0h-.1s-.1 0-.1.1c-.1.1-.1.2-.1.3 0 .1.1.1.2.1h.1c.1 0 .1-.1.2-.1v-.2c0-.2-.1-.2-.2-.2M37.1 18.4h.2c.1 0 .1.1.1.2s-.1.1-.1.1h-.1c-.1 0-.3-.1-.2-.2 0-.1 0-.1.1-.1m0-.1c-.1 0-.2.1-.2.2s0 .1.1.2c.1 0 .1.1.2.1h.2c.1 0 .1-.1.2-.2 0-.1 0-.2-.1-.2h-.1c-.2-.1-.2-.1-.3-.1"/><path class="st0" d="M31.5 19.2s0 .1 0 0c0 .1 0 .1 0 0 .1.1.1.1.1 0 .1-.1.3 0 .3 0 0 .1 0 .2-.2.3h-.1v.2c.7-.5 1.9-.8 2.8-.9 0 0 1.6-.4 2.9 0v-.2h-.2c-.1 0-.3-.1-.2-.2 0-.1.1-.2.3-.1h.1v-.1-.1c-1.9 0-3.9.3-5.8 1.1zm1.5-.1c-.2.1-.3 0-.4-.1 0-.1.1-.2.3-.3.2-.1.3 0 .4.1 0 .2-.2.3-.3.3zm1.5-.3c-.2 0-.3 0-.4-.1 0-.1.1-.2.3-.2.2 0 .3 0 .4.1 0 .1-.2.2-.3.2zm1.5-.2c-.2 0-.3-.1-.3-.2s.1-.2.3-.2c.2 0 .3.1.3.2 0 .2-.2.2-.3.2z"/><path class="st0" d="M31.4 19.3c-.1 0-.1 0-.1-.1v-.1s0-.1.1-.1c1-.4 2-.7 3-.9 1-.2 2-.2 3-.1.1 0 .1.1.1.1 0 .1 0 .1-.1.1-1-.1-2-.1-3 .1s-2 .5-3 1m3-1.1c-1 .2-2 .5-3 .9v.1s.1.1.1 0c1-.4 2-.7 3-.9 1-.2 2-.2 3-.1 0 0 .1 0 .1-.1 0 0 0-.1-.1-.1-1.1 0-2.1 0-3.1.2M32.3 16.5c-.1.3-.1.4-.1.6l.4.8V17c0-.2-.3-.3-.3-.5M35.9 16c.1.2.2.4.2.5 0 .2-.2.7-.2.9-.1-.2-.2-.7-.2-.9-.1-.2.1-.4.2-.5M34.7 20.3c-1.5.2-3.1.2-3.2-.2-.1-.5 1.4-1 2.9-1.2 1.5-.2 3.1-.2 3.2.2.1.5-1.4 1-2.9 1.2m-.2-1.4c-1.8.3-2.9.8-2.9 1.1.1.3 1.3.5 3.1.2s2.9-.8 2.9-1.1c-.1-.3-1.4-.5-3.1-.2M31.3 18.2c.2-.1.3-.1.5 0-.1-.2-.3-.4-.3-.6 0 .2-.1.4-.3.5l.1.1zM31.2 18.1c-.1-.2-.1-.4 0-.7l-.5.3c.1.1.2.2.3.4h.2zM31.2 18.1z"/><path class="st0" d="M31.1 18.5c-.1 0-.2-.1-.3-.2 0-.1.1-.2.2-.3.1 0 .2.1.3.2 0 .2-.1.3-.2.3m0-.4c-.1 0-.2.1-.2.2s.1.2.2.2.2-.1.2-.2-.1-.2-.2-.2M37.3 17.1c-.2-.1-.3-.2-.4-.4 0 .2-.1.5-.1.7.1-.1.3-.1.4-.1 0-.1 0-.2.1-.2z"/><path class="st0" d="M37.4 17.5h-.2c-.1.2-.3.5-.7.4-.3 0-.6-.2-.5-.5 0-.1.1-.2.2-.2s.2.2.2.3c.2-.1.3-.7 0-.7-.2 0-.5.3-.5.6-.1-.3-.3-.6-.6-.5-.3.1-.1.6 0 .7 0-.2.1-.4.2-.4s.2.1.2.3c0 .3-.3.5-.6.6-.3 0-.6-.1-.7-.5l-.1.1h-.1c0 .4-.3.6-.6.7-.3.1-.7 0-.8-.3-.1-.2.1-.3.2-.3s.2.1.3.2c0-.2 0-.7-.3-.6-.2 0-.3.3-.3.6-.1-.2-.5-.4-.7-.3-.3.2 0 .6.2.7-.1-.1-.1-.3 0-.4.1 0 .2.1.3.2.1.3-.1.5-.4.6-.4.1-.7-.1-.8-.3 0 .1-.1.1-.1.1l.3.6c2-.8 4-1.2 6-.9-.1-.4-.1-.6-.1-.8z"/><path class="st0" d="M34 17.2c-.2 0-.4 0-.6-.2.1.3.1.5.1.8.1-.1.3-.3.5-.4v-.1c-.1 0 0-.1 0-.1zM34.2 17h.2c0-.2.1-.4.3-.5l-1 .2c.2.1.3.2.4.4 0 0 0-.1.1-.1z"/><path class="st0" d="M34.4 17.3c.2 0 .5.1.6.2-.1-.3-.1-.5-.1-.8-.1.2-.3.3-.5.3v.1c.1.2 0 .2 0 .2zM37.5 17.1c0-.2.1-.3.2-.5l-.6-.2c.2.2.3.4.3.6 0 .1.1.1.1.1z"/><path class="st0" d="M37.4 17.5c-.1 0-.2-.1-.3-.2 0-.1.1-.2.2-.3.1 0 .2.1.3.2 0 .2-.1.3-.2.3m0-.4c-.1 0-.2.1-.2.2s.1.2.2.2.2-.1.2-.2c0-.2-.1-.2-.2-.2M33.2 19.5c-.1 0 0-.1.1-.1s.1.1.3.1c0 0-.3.1-.4 0M34.4 19.3c-.1-.1 0-.1.1-.1s.1.1.3.1h-.4M35.7 19.2c-.1-.1 0-.1.1-.1s.1.1.3.1h-.4M32 19.9c-.1-.1 0-.1.1-.1s.1.1.3.1c0 0-.3.1-.4 0M36.8 19.2c-.1-.1 0-.1.1-.1s.1.1.3.1h-.4"/></g><g><path class="st1" d="M50.1 24.4l1.8.3c.8.1 1.5.1 2.3.1 1-.1 1.5 1.2.9 2-.5.6-1.1 1.4-2 1-.2 0-.3-.3-.6-.1-.5.4-.9.3-1.2-.1-.1-.1-.3-.2-.5-.1-.7.3-1.1 0-1.4-.4-.6-.5-.8-1.1-.8-1.8.1-.6.5-.8 1.5-.9m-.8 1.8c.4-.7.9-.6 1.2-.3.4.3.7.3 1.1.4.6.1 1.2.1 1.8-.2.2-.1.8-.3.7.4 0 .1.1.2.2.2.1.1.3-.1.3-.2.2-.3 0-.8-.4-1-.4-.2-.8-.2-1.1-.1-.9.3-1.7.2-2.6-.2-.3-.1-.7-.3-1-.1-.2.1-.4.1-.4.3-.1.3 0 .6.2.8M51.2 29.4c-.4.1-.6.2-.8.5-.1.1-.3 0-.5 0-.2-.1-.5-.1-.5-.3 0-.7.9-1.4 1.5-1.2.3.1.4.4.4.6.1.1 0 .4-.1.4M48.1 26.1c-1.1 0-1.4-.2-1.6-.9 0-.2-.1-.5 0-.8 1.2.1 1.5.2 1.4.9 0 .2 0 .3.2.8M52.2 30.9c-.1.5-.5.7-.8.7-.3 0-.7-.4-.7-.7 0-.4.3-.8.8-.8.4.1.8.3.7.8M55.6 26.9c1 0 1.3-.2 1.4-.8v-.8c-1 .1-1.1.2-1.2.8 0 .6 0 .6-.2.8M46.5 32.5c-1-.3-1.3-.1-1.6.4-.1.2-.2.4-.2.8 1.1.2 1.2.1 1.4-.4.1-.6.2-.6.4-.8M56.2 33.1c.9-.3 1.2-.1 1.4.4.1.2.2.4.2.7-.9.2-1.1.1-1.2-.4-.1-.6-.1-.6-.4-.7M51.5 35.8c.7.7.7 1 .4 1.4-.1.2-.3.3-.5.5-.7-.7-.7-.9-.3-1.3.4-.3.3-.3.4-.6M50.1 30.8c-.1.4 0 .6.2.9.1.1-.1.3-.2.5s-.3.4-.5.4c-.6-.2-1-1.3-.6-1.8.2-.3.4-.2.6-.1.2-.1.5 0 .5.1M52.7 30.2c-.1-.4-.2-.5-.6-.7-.1-.1-.1-.3 0-.5 0-.2.1-.5.3-.5.7-.1 1.4.7 1.3 1.4-.1.3-.3.4-.5.4s-.5 0-.5-.1M51 32.2c.4.2.6.1.9 0 .1 0 .3.1.4.3.1.2.3.3.2.5-.4.5-1.4.7-1.9.2-.2-.3-.1-.5 0-.6.2-.3.3-.5.4-.4M52.6 31.7c.3-.3.3-.4.3-.7 0-.1.2-.2.4-.2s.4-.1.5 0c.3.5 0 1.5-.6 1.6-.3.1-.4-.1-.5-.3-.1-.1-.2-.4-.1-.4M45.2 30.3c.2-.4.5-.9.7-1.3.3-.6.5-1.1.7-1.7.2-.8 1.4-.8 2-.1.4.5.9 1.3.3 1.8-.1.1-.3.1-.2.4.2.5 0 .7-.4.9-.1.1-.2.2-.2.3.1.6-.3.8-.7 1-.6.3-1.2.3-1.7 0-.6-.2-.8-.5-.5-1.3m1.3 1.2c-.5-.5-.3-.9 0-1.1.3-.2.5-.4.6-.7.2-.5.4-.9.3-1.4 0-.2 0-.7.6-.4h.3c.1-.1 0-.2-.1-.3-.2-.3-.7-.2-1 0-.3.3-.4.5-.3.8 0 .8-.3 1.4-.9 1.9-.2.2-.4.4-.4.7 0 .2 0 .3.2.4.2.1.5.1.7.1M56.8 32.6c-.6.1-1.1-.1-1.6-.5-.3-.3-.6-.5-.4-1.1 0-.1-.1-.3-.1-.4-.4-.2-.5-.5-.1-.9.1-.2-.1-.3-.1-.5-.4-.7.2-1.2.8-1.7.7-.6 1.9-.2 1.9.5.1.6.1 1.2.3 1.8.1.4.3 1 .4 1.4-.3 1-.5 1.3-1.1 1.4m0-.4c.2-.1.2-.2.3-.4.1-.3 0-.6-.2-.8-.4-.6-.6-1.3-.4-2 .1-.3.1-.5-.1-.9-.2-.3-.6-.4-.9-.2-.1 0-.2.1-.2.3l.2.1c.6-.1.5.4.4.6-.2.5-.2 1-.1 1.4.1.3.1.6.4.9.3.3.4.6-.2 1 .3.1.5.1.8 0M52.4 36.3c-.3-.4-.4-.9-.3-1.5.1-.4.1-.7.7-.8.1 0 .2-.2.2-.3 0-.4.2-.6.7-.5.3 0 .2-.2.3-.3.4-.6 1.1-.3 1.6-.1.7.3 1 1.4.4 1.7-.5.3-.9.6-1.3 1l-.9.9c-.7.4-1.1.4-1.4-.1m.3-.2c.1.1.3.1.4 0 .3 0 .4-.3.5-.5.3-.6.7-1 1.4-1.1.2-.1.4-.2.6-.5.2-.3.1-.7-.2-.8-.1 0-.2-.1-.3 0v.2c.3.4-.1.5-.2.6-.5 0-.8.3-1.1.6-.2.2-.4.4-.5.7-.1.3-.3.6-.9.3 0 .2.1.4.3.5M46.5 33.5c.3-.5.7-.8 1.3-.9.4-.1.7-.2 1 .4.1.1.2.1.3.1.4-.1.7 0 .8.5.1.3.3.2.4.2.7.1.7.9.7 1.6 0 .9-1 1.5-1.6 1-.5-.3-.9-.7-1.5-1-.4-.2-.9-.4-1.2-.6-.5-.4-.5-.8-.2-1.3m.3.2c0 .2 0 .3.1.4.1.2.4.3.7.4.7.1 1.3.4 1.7 1 .1.2.3.4.7.4.3.1.7-.2.7-.5 0-.1 0-.3-.1-.3l-.2.1c-.3.5-.6.1-.7 0-.2-.5-.6-.7-1-.9-.3-.2-.5-.3-.9-.2-.4 0-.7-.1-.6-.8-.2 0-.4.2-.4.4"/></g><g><path class="st1" d="M98.9 24.1c0-.6-.7-1.1-1.4-1.2-.2 0-.3 0-.5-.1-.1 0-.3-.2-.3-.4h1.2c.4 0 .6.2 1 .4-.1-.6-.8-1.1-1.5-1.1h-.5c-.2 0-.5 0-.5-.4.5-.1.9-.2 1.2-.2.4 0 .6.1 1.1.2-.2-.6-.9-1-1.6-.9-.2 0-.3 0-.5.1-.2 0-.4.1-.5-.2.5-.2.8-.3 1.2-.4.4-.1.7 0 1.2.1-.3-.6-1-.9-1.6-.7-.2 0-.3.1-.5.1-.2.1-.4.2-.5-.2.4-.2.7-.4 1-.5.4-.1.7-.2 1.2 0-.3-.5-1.1-.7-1.7-.5-.2.1-.3.2-.5.2-.2.1-.3.1-.5-.1.3-.2.6-.4.8-.5.4-.2.7-.2 1.2-.3-.4-.5-1.2-.5-1.8-.1-.1 0-.1.1-.3.1-.2.1-.4.1-.6-.1.6-.5 1.3-.7 1.7-.6 0 0-.5-.3-1-.1 0-.1 0-.3-.2-.4 0 .4-.5.7-.8.9-.6.4-1.2.8-1.9 1-.3.1-.5 0-.6-.1-.1-.2 0-.4.3-.4.6 0 1-.5 1.5-.8.2-.1.3-.3.6-.3-1.5-.3-2.4-.7-3.4.5-.2-.5 0-.8.3-1 .3-.2.7-.3 1-.5.5-.3.7-1 .4-1.5-.3.2-.1.4-.5 1-.3.4-.5.4-.6.3 0-.2.3-.5.3-.7.1-.3.1-.3.2-.7 0 0 .1-.7-.2-.7-.2.2-.2.3-.4.6-.1.4-.5 1.4-.9 1.2.1-.3.1-.4.2-.7.1-.2.1-.5.1-.8 0-.2 0-.5-.2-.6-.1.1-.4.6-.4.7-.2.5-.3.6-.5 1.3-1.5-1-3-1.9-4.3-2.8-1.4-1-2.8-2-4.4-2.7.6.7 1.3 1.2 1.9 1.8.3.3.5.4.7.4.4 0 .5.2.6.3.2.2-.1.2-.4.2.2.2.4.4.6.4.8 0 .8.1.9.2.4.3-.3.2-.5.2.2.2.4.4.6.4.3 0 .6-.1.8.1.4.3-.1.2-.5.2.3.3.5.5.9.5.5 0 .6-.1.9.1.5.4-.4.3-.8.3.3.3.5.5.7.5.4 0 .9-.1 1.1.1.3.3-.2.3-.9.3.2.4.1.7-.5 1.2-.4.3-.7.8-.8 1.3-.2 1.1-.8 2-1.5 2.7-.7.7-1.1 1.1-1.1 2.2 0 .3.1.8.3.8.3.1.7 0 1-.1.4-.1.8-.3 1.1-.5.1-.1.2 0 .1.2-.1.5-.2.9-.2 1.4v.3l.1.1c.5.2 1.3-.3 1.4-.9.1-.6 1-1.6 1.5-1.6 1.2-.1 2.2-.6 2.9-1.6.1-.1.1-.2.1-.4 0-.1.2-.1.2 0 0 .2 0 .4-.1.6-.1.8-.8 1.2-1.4 1.6-.2.1-.5.4-.5.6-.1.7-.3 1.3-.8 1.9-.3.4-.9 1-1.2 1.2.2 0-.1.7-.1.7.3-.2.5-.2.7.1 0-.6 1.3-1 1.3-.9-.1.5.1 1.3-.2 1.6.3 0 .4 0 .5.4.1-.3.3-.6.5-.4.7.4 1.3 1 1.7 1.3.1.1.1.4-.3.5.6.2 1.9-.1 1.9-.1s.1.8-.1 1c.4.3.9.6 1.2.8.3.3.5.6.6 1.1.3-.5-.1-1.3-.6-1.8-.2-.2-.5-.4-.4-.9.3.3.6.5.9.7.3.3.5.6.6 1 .3-.5-.1-1.3-.6-1.7-.3-.2-.6-.4-.5-.9.3.2.7.5.9.7.3.3.5.5.7 1 .3-.5-.1-1.2-.7-1.7-.3-.2-.6-.4-.4-.9.3.2.7.4.9.6.3.3.5.5.7.9.3-.6-.1-1.2-.7-1.6-.1-.1-.3-.2-.4-.3 0 0-.3-.2-.1-.6.3.2.7.4.9.6.3.3.6.6.7 1 .3-.6-.2-1.3-.8-1.6-.1-.1-.3-.2-.4-.3-.1-.1-.4-.2-.3-.7.4.2.8.3 1 .5.3.3.7.5.8.8.2-.6-.3-1.2-1-1.5-.1-.1-.3-.1-.5-.2-.1-.1-.3-.2-.3-.6.4.1.8.3 1 .4.4.2.7.4 1 .7.1-.6-.5-1.1-1.2-1.4-.1 0-.3-.1-.4-.2-.1-.1-.3-.3-.3-.5.4.1.9.2 1.1.3.4.2.6.3 1 .6 0-.6-.6-1.1-1.3-1.2-.1 0-.3 0-.4-.1-.1 0-.4-.2-.4-.5.4 0 .8 0 1.1.1.8.4 1 .6 1.4.8m-13.6-1.4c-.1.1-.2.1-.3.2-.1.1-.1-.5-.2-.5s-.3.2-.5.2c-.1.1-.2 0-.2-.1.1-.2.2-.6.3-.6.2-.1.5.1.7.2.2.1.3.4.2.6m1.8-2.9c-.1-.2-.7.6-.7.3.2-.6.4-1.1.7-1.5.1-.2.3-.3.5-.4.2 0-.1.5.1.6.4.3.9.7 1.3 1-.5.4-1.6.3-1.9 0m4.6-2.2c-.1.1-.3.2-.4.1-.2-.1-.1-.3.1-.4.2-.3.7-.4 1.4-.2.7.1-.6-.2-1.1.5"/><path class="st0" d="M93.5 16.1c.2 0 .5-.1.6-.3.1-.2.1-.6 0-.6 0 0-.1 0-.2.1-.2.3-.1.5-.1.6-.2 0-.3.2-.3.2M94.8 15.6c.1 0 .1.3 0 .4-.1.1-.3.2-.5.1.3-.1.2-.3.3-.4 0 0 .1-.1.2-.1M92.6 16c.3 0 .6-.2.7-.4.1-.2.1-.8 0-.8 0 0-.1-.1-.3.1-.2.3-.1.6-.2.8 0 .1-.2.3-.2.3"/></g></g></svg>